<?xml version="1.0" encoding="utf-8" ?>
<svg baseProfile="full" height="200mm" version="1.1" viewBox="0,0,200,200" width="200mm" xmlns="http://www.w3.org/2000/svg" xmlns:ev="http://www.w3.org/2001/xml-events" xmlns:xlink="http://www.w3.org/1999/xlink"><defs /><rect fill="#1a1a1a" height="200" width="200" x="0" y="0" /><text alignment-baseline="middle" fill="#e1ed5e" style="dominant-baseline: central; font-size:9.0px; font-family:Arial;" text-anchor="middle" x="100.0" y="100.0">2016</text><line stroke="#e1ed5e" stroke-width="0.3" x1="100.0" x2="100.0" y1="15.0" y2="10.0" /><path d="M 100.0 14.0 a86.0,86.0 0 0,1 42.35913384403234,11.155469271406648" fill="none" id="id13" stroke="none" /><text fill="#e1ed5e" style="font-size:6.75px; font-family:Arial;" text-anchor="middle"><textPath startOffset="22.145653131862478" xlink:href="#id13">January</textPath></text><path d="M 100.72087961077811 79.0123766808444 l 1.2253928600888389 -35.67597610059653 a56.69701469859758,56.69701469859758 0 0,0 0.9724192450128852,0.04175986644334364 l -1.8376378657025603 35.64968366572735" fill="#5eff29" stroke="none" /><path d="M 101.80034050326958 79.07731436759882 l 1.8001519740210563 -20.92049463675773 a41.99780090809942,41.99780090809942 0 0,0 0.7177632896564848,0.06797292978614768 l -2.159014827062554 20.8865099514664" fill="#fff216" stroke="none" /><path d="M 102.15924093988457 79.11130261209362 l 2.160697401388107 -20.90278733175774 a42.01416502022046,42.01416502022046 0 0,0 0.7167698548078395,0.0803155572700656 l -2.5192031577967433 20.862616013980702" fill="#fff216" stroke="none" /><path d="M 102.87502721639298 79.19773525538626 l 0.5204947427584559 -3.766040674434104 a24.80183865238009,24.80183865238009 0 0,0 0.4212472943844276,0.06190884582724081 l -0.5850671427505655 3.7565507553079804" fill="#ff0000" stroke="none" /><path d="M 103.58742460773223 79.30868818359171 l 7.608704083635561 -43.884983219982885 a65.53969162500468,65.53969162500468 0 0,0 1.106888199674479,0.20171190236662923 l -8.360927016861094 43.747903143684894" fill="#35ff65" stroke="none" /><path d="M 104.29559338865022 79.4440306129975 l 4.295058483543369 -20.55340967242842 a41.99738499289214,41.99738499289214 0 0,0 0.70443130467677,0.15352752419529386 l -4.647252204839273 20.476650690099405" fill="#fff216" stroke="none" /><path d="M 104.9986988182912 79.60360301121754 l 4.994027045387337 -20.377334561088297 a41.98037344626124,41.98037344626124 0 0,0 0.6984628700259469,0.17754653024278938 l -5.343095208638679 20.28860279901024" fill="#fff216" stroke="none" /><path d="M 105.69591212413111 79.78721728523813 l 12.124957509160357 -43.027196736425154 a65.70295575903208,65.70295575903208 0 0,0 1.082972394901112,0.3152374807469194 l -12.861789916443072 42.81271556137572" fill="#35ff67" stroke="none" /><path d="M 106.72888874123014 80.10723608172694 l 6.727390396005772 -19.888334326855727 a41.99532385644619,41.99532385644619 0 0,0 0.6809126368676224,0.23685676106415016 l -7.067808804918412 19.769919133222988" fill="#fff216" stroke="none" /><path d="M 107.40779381753099 80.34994680014964 l 7.405653561899242 -19.64437591750949 a41.99393269178735,41.99393269178735 0 0,0 0.6723583322837533,0.2600826468294074 l -7.741784156676521 19.51435338254204" fill="#fff216" stroke="none" /><path d="M 108.4095320186766 80.7573450057729 l 8.40179802007982 -19.224958091903275 a41.980686919299245,41.980686919299245 0 0,0 0.6578705430502517,0.2942571261308888 l -8.730581965985703 19.077897214862535" fill="#fff216" stroke="none" /><path d="M 108.73861861582097 80.90454125486305 l 5.6814948088724275 -12.415091503949432 a34.65334685396521,34.65334685396521 0 0,0 0.5387956595211912,0.2521835740436361 l -5.893779182265123 12.315731698335263" fill="#ff900d" stroke="none" /><path d="M 109.06512990194946 81.05736502329252 l 5.43638202143473 -11.359947550649826 a33.59375471559192,33.59375471559192 0 0,0 0.5180472930213593,0.2534028906976528 l -5.630589563718155 11.264950909854953" fill="#ff810b" stroke="none" /><path d="M 110.02825361518725 81.54914285379988 l 10.023844635587238 -18.44274512032981 a41.99076722875655,41.99076722875655 0 0,0 0.6303730196499936,0.3496572878103834 l -10.338961843393333 18.267954917086282" fill="#fff216" stroke="none" /><path d="M 110.34350942703115 81.72400993836675 l 25.838835378556443 -45.65474628452264 a73.4595203182823,73.4595203182823 0 0,0 1.0921245500347578,0.6305384029511664 l -26.618752396451598 45.2044609842953" fill="#3fffc0" stroke="none" /><line stroke="#e1ed5e" stroke-width="0.3" x1="143.13028292997686" x2="145.6673583964461" y1="26.7553504044142" y2="22.446841604673864" /><path d="M 143.63769802327073 25.89364864446614 a86.0,86.0 0 0,1 29.32050498858742,28.57503671076993" fill="none" id="id14" stroke="none" /><text fill="#e1ed5e" style="font-size:6.75px; font-family:Arial;" text-anchor="middle"><textPath startOffset="20.669276256404974" xlink:href="#id14">February</textPath></text><path d="M 111.27062007382361 82.28071324371311 l 7.335563127277133 -11.532723640729698 a34.66799915743755,34.66799915743755 0 0,0 0.49940799266794395,0.3237102271711688 l -7.532456752202085 11.405099571854635" fill="#ff900d" stroke="none" /><path d="M 111.5731344415666 82.4767994020092 l 11.563219254130322 -17.508187740472387 a41.98200842328298,41.98200842328298 0 0,0 0.5979511691689005,0.402328232329642 l -11.862066711396222 17.307109834085626" fill="#fff216" stroke="none" /><path d="M 112.45986205192187 83.09580414077388 l 37.379586155765615 -50.71258757767834 a84.0,84.0 0 0,0 1.1533880443569346,0.8655238909439404 l -38.24462718903332 50.063444659470385" fill="#4dd2ff" stroke="none" /><path d="M 113.03279911837588 83.53348406188908 l 13.060323539767786 -16.501292145387687 a42.04435062982096,42.04435062982096 0 0,0 0.5620913833445521,0.4527810300610572 l -13.341665693467597 16.27466282153322" fill="#fff316" stroke="none" /><path d="M 113.59037401385872 83.9905735841838 l 13.595608346888204 -16.015592446963378 a42.00808815073867,42.00808815073867 0 0,0 0.5457461173072453,0.4714024979362304 l -13.86853394395831 15.779845816562428" fill="#fff216" stroke="none" /><path d="M 114.13192950727249 84.46653392183569 l 8.482039051968211 -9.323246752653974 a33.60428167290729,33.60428167290729 0 0,0 0.423366308906239,0.3918615350316221 l -8.640835132188414 9.176267471489977" fill="#ff810b" stroke="none" /><path d="M 114.39649973595853 84.71141617570332 l 14.395563817699045 -15.287589911538356 a41.998634787357375,41.998634787357375 0 0,0 0.5206381043449225,0.49875952665204804 l -14.65587440790928 15.038218254580729" fill="#fff216" stroke="none" /><path d="M 114.91283532996326 85.21462403516908 l 15.832980667833226 -15.697656859890428 a43.29573294867979,43.29573294867979 0 0,0 0.5187513268446438,0.5322845608401958 l -16.10011879582868 15.42354960698249" fill="#fbff18" stroke="none" /><path d="M 115.41159269507618 85.73525988315684 l 18.503154864912364 -17.12624390690026 a46.2125954695975,46.2125954695975 0 0,0 0.5338705671899328,0.5868172736997821 l -18.794423132944175 16.806089057642808" fill="#d7ff1c" stroke="none" /><path d="M 116.1254893667686 86.54754324733833 l 33.994220199645426 -28.359187536882054 a65.27019905911908,65.27019905911908 0 0,0 0.7103672192328383,0.8665325033698773 l -34.476034238116895 27.77145275181368" fill="#35ff62" stroke="none" /><path d="M 116.7966241395341 87.39550010848427 l 22.16439952442412 -16.63257861105322 a48.71106778042227,48.71106778042227 0 0,0 0.49615233438798567,0.6731259304121299 l -22.44665387839593 16.249646371372215" fill="#b9ff1f" stroke="none" /><path d="M 117.21940702142032 87.97951657250589 l 17.21910070256485 -12.020269593143075 a41.999626427556024,41.999626427556024 0 0,0 0.40761690075515356,0.5947252399804372 l -17.422907340135332 11.722909618092588" fill="#fff216" stroke="none" /><path d="M 117.62189284568427 88.57770195909679 l 9.448128643147855 -6.124162837436591 a32.25932970104839,32.25932970104839 0 0,0 0.2972195036743015,0.467278426623385 l -9.551865838448048 5.961070736134534" fill="#ff6e0a" stroke="none" /><line stroke="#e1ed5e" stroke-width="0.3" x1="172.87174338648825" x2="177.1583165268699" y1="56.24261187166439" y2="53.66864786411523" /><path d="M 173.72905801456457 55.72781907015455 a86.0,86.0 0 0,1 12.242430191666344,42.057860355516425" fill="none" id="id15" stroke="none" /><text fill="#e1ed5e" style="font-size:6.75px; font-family:Arial;" text-anchor="middle"><textPath startOffset="22.145653131862474" xlink:href="#id15">March</textPath></text><path d="M 118.53625476483649 90.13048839642627 l 22.457864825188647 -11.957548075146164 a46.44285063580489,46.44285063580489 0 0,0 0.3686499264185971,0.7069348422224608 l -22.659822820582185 11.570266989819205" fill="#d4ff1c" stroke="none" /><path d="M 118.70294669586156 90.45014215332178 l 18.771740374509612 -9.58498438917029 a42.07724276153388,42.07724276153388 0 0,0 0.3229530304816592,0.6461223986218618 l -18.93351331820301 9.261330134384679" fill="#fff316" stroke="none" /><path d="M 118.8641267826498 90.77261029715802 l 18.93799483614448 -9.26352226938158 a42.082231695177896,42.082231695177896 0 0,0 0.3118508630050712,0.6516483634510237 l -19.094224957109464 8.937061403865453" fill="#fff316" stroke="none" /><path d="M 119.31412917781788 91.75594674310238 l 19.42576387484777 -8.291703470850255 a42.121378945747146,42.121378945747146 0 0,0 0.2781498405838211,0.6674583605071083 l -19.565239559968074 7.957012600901869" fill="#fff417" stroke="none" /><path d="M 119.58574465831526 92.42381321644754 l 23.961561097773707 -9.268846585578496 a46.69178715600245,46.69178715600245 0 0,0 0.28275060210050074,0.7500295648639353 l -24.11714238368865 8.856148740520402" fill="#d1ff1c" stroke="none" /><path d="M 119.83427380445688 93.10060997987247 l 30.299205659848763 -10.53963655076588 a53.07999068329122,53.07999068329122 0 0,0 0.2919767974630086,0.863177520822431 l -30.47566787888414 10.017957355469289" fill="#86ff25" stroke="none" /><path d="M 120.05942366710727 93.78553927170692 l 31.273642669780266 -9.688654441289179 a53.740048117249515,53.740048117249515 0 0,0 0.26543407399539326,0.8835437045767331 l -31.435353063779285 9.150373133121722" fill="#7fff26" stroke="none" /><path d="M 120.26092885502905 94.47779374421319 l 28.418153459647762 -7.745494095342228 a50.45478101831809,50.45478101831809 0 0,0 0.2205847448178773,0.8375962052660452 l -28.546927685270372 7.2565173857033844" fill="#a4ff21" stroke="none" /><path d="M 120.51834098615036 95.52812308129327 l 22.935206843097788 -4.998621583325999 a44.47360071801879,44.47360071801879 0 0,0 0.15617072022998996,0.7473334307376407 l -23.017635274152145 4.604171701302954" fill="#ecff1a" stroke="none" /><path d="M 120.65975698304385 96.23510406497455 l 20.993255338737484 -3.8256704448475736 a42.3389906994218,42.3389906994218 0 0,0 0.12416449854373739,0.7161478321688025 l -21.055834654773456 3.464729579758178" fill="#fff717" stroke="none" /><path d="M 120.86939407059847 97.66154086499901 l 41.92866134202595 -4.698193958192456 a63.19106147518805,63.19106147518805 0 0,0 0.11154006978234202,1.0790489941497003 l -42.00313380428996 3.977740441759824" fill="#32ff48" stroke="none" /><path d="M 120.99303781780057 99.45929381324524 l 26.31374356832556 -0.6777486930456362 a47.32247032234095,47.32247032234095 0 0,0 0.013945635452852564,0.8122633510309583 l -26.32150063537708 0.22593842604561146" fill="#c9ff1d" stroke="none" /><line stroke="#e1ed5e" stroke-width="0.3" x1="184.99686870605535" x2="189.99668451229388" y1="99.2704041080226" y2="99.22748670261217" /><path d="M 185.99683186730306 99.26182062694052 a86.0,86.0 0 0,1 -10.086455211305974,41.156179273409016" fill="none" id="id16" stroke="none" /><text fill="#e1ed5e" style="font-size:6.75px; font-family:Arial;" text-anchor="middle"><textPath startOffset="21.40746469413373" xlink:href="#id16">April</textPath></text><path d="M 120.99922638620191 99.81974689727618 l 23.12632005799762 -0.19851164363737964 a44.12717203415936,44.12717203415936 0 0,0 0.0,0.7575294927224102 l -23.12632005799762 -0.19851164363737683" fill="#f1ff19" stroke="none" /><path d="M 120.99303781780057 100.54070618675476 l 20.973231387966365 0.5401960433804688 a41.98018700151315,41.98018700151315 0 0,0 -0.024738950194031932,0.720247542336778 l -20.96086775077549 -0.9001498502813575" fill="#fff216" stroke="none" /><path d="M 120.7213421655516 103.40968896794604 l 24.455522850004623 4.024146978550375 a45.78439744621754,45.78439744621754 0 0,0 -0.13426859393968515,0.7744255693537766 l -24.382839438572706 -4.443365580824739" fill="#dcff1b" stroke="none" /><path d="M 120.51834098615036 104.47187691870673 l 21.650441007376486 4.718612849160639 a43.158675570398,43.158675570398 0 0,0 -0.16398064476544513,0.7225289772960406 l -21.566249501053377 -5.089576160395696" fill="#fdff18" stroke="none" /><path d="M 120.35273937422433 105.17358676015961 l 33.191025288283264 8.43702883578685 a55.2465708540776,55.2465708540776 0 0,0 -0.24153411208910097,0.9171443650609868 l -33.04130169538943 -9.005553705220638" fill="#6eff28" stroke="none" /><path d="M 120.26092885502905 105.52220625578681 l 20.730106644756802 5.65008274871806 a42.486292294631745,42.486292294631745 0 0,0 -0.1978273203204408,0.7020193699513277 l -20.63006083236178 -6.0051100425723964" fill="#fff817" stroke="none" /><path d="M 120.05942366710727 106.21446072829308 l 30.383789103211072 9.412975531707959 a52.808469762453846,52.808469762453846 0 0,0 -0.2756986472273748,0.8636220857047086 l -30.217725740206443 -9.93316665110405" fill="#89ff24" stroke="none" /><path d="M 119.83427380445688 106.89939002012753 l 30.237773641623914 10.518267305910467 a53.01494810117097,53.01494810117097 0 0,0 -0.3063754803184421,0.8569867461727233 l -30.052757991261526 -11.035789008464112" fill="#87ff25" stroke="none" /><path d="M 119.71291397450082 107.23885506374661 l 31.709632156835724 11.644216152161492 a54.78000209177153,54.78000209177153 0 0,0 -0.33173025745971896,0.8799539198373744 l -31.505071215561564 -12.186838352193025" fill="#73ff27" stroke="none" /><path d="M 119.31412917781788 108.2440532568976 l 20.13363053924568 8.593849657527986 a42.89103311008962,42.89103311008962 0 0,0 -0.2948577117326396,0.6746921477506057 l -19.983138945496076 -8.938203875054437" fill="#fffe18" stroke="none" /><path d="M 119.0197475246899 108.90220220490707 l 32.689109837269044 15.300153973759466 a57.09255620725397,57.09255620725397 0 0,0 -0.4230850458065855,0.8840850239878267 l -32.42164553350254 -15.859051499812397" fill="#5aff2a" stroke="none" /><path d="M 118.70294669586154 109.54985784667822 l 30.84939756509492 15.75192220739775 a55.63825029295208,55.63825029295208 0 0,0 -0.4416403514374894,0.8469036063444823 l -30.574449144682482 -16.279172056846733" fill="#6aff28" stroke="none" /><line stroke="#e1ed5e" stroke-width="0.3" x1="174.33088141563837" x2="178.70328620479359" y1="141.23008692659167" y2="143.65538615756765" /><path d="M 175.20536237346943 141.71514677278685 a86.0,86.0 0 0,1 -30.301960400862466,31.631185727798858" fill="none" id="id17" stroke="none" /><text fill="#e1ed5e" style="font-size:6.75px; font-family:Arial;" text-anchor="middle"><textPath startOffset="22.145653131862474" xlink:href="#id17">May</textPath></text><path d="M 118.00360718960297 110.81064883170644 l 18.572564404577438 11.152291291830029 a42.663650422308905,42.663650422308905 0 0,0 -0.3824126553692495,0.6246423331188979 l -18.378383784752785 -11.469470741073485" fill="#fffb17" stroke="none" /><path d="M 117.81537515405839 111.11811171558189 l 17.798959592415127 11.107867191026807 a41.980650040118306,41.980650040118306 0 0,0 -0.386786336990846,0.6080923652525834 l -17.605655563798393 -11.411773230958064" fill="#fff216" stroke="none" /><path d="M 117.423217284605 111.72311816256416 l 26.480769851768862 17.81744375547979 a52.91696216625317,52.91696216625317 0 0,0 -0.5135723802875141,0.7493174511360158 l -26.171007734666027 -18.269395941685847" fill="#88ff25" stroke="none" /><line stroke="#e1ed5e" stroke-width="0.3" x1="143.1302829299769" x2="145.66735839644613" y1="173.24464959558577" y2="177.55315839532614" /><path d="M 143.63769802327073 174.10635135553383 a86.0,86.0 0 0,1 -40.68552437913181,11.842963189579606" fill="none" id="id18" stroke="none" /><text fill="#e1ed5e" style="font-size:6.75px; font-family:Arial;" text-anchor="middle"><textPath startOffset="21.407464694133747" xlink:href="#id18">June</textPath></text><line stroke="#e1ed5e" stroke-width="0.3" x1="101.45913802915013" x2="101.54496967792366" y1="184.9874750549273" y2="189.98673829345242" /><path d="M 101.47630435890484 185.9873277026323 a86.0,86.0 0 0,1 -42.54439059252881,-10.42667462771756" fill="none" id="id19" stroke="none" /><text fill="#e1ed5e" style="font-size:6.75px; font-family:Arial;" text-anchor="middle"><textPath startOffset="22.145653131862474" xlink:href="#id19">July</textPath></text><line stroke="#e1ed5e" stroke-width="0.3" x1="58.13341422392154" x2="55.67067388415222" y1="173.97424548756322" y2="178.32567169271397" /><path d="M 57.64086615596768 174.84453072859336 a86.0,86.0 0 0,1 -31.369924170532247,-30.572349798747897" fill="none" id="id20" stroke="none" /><text fill="#e1ed5e" style="font-size:6.75px; font-family:Arial;" text-anchor="middle"><textPath startOffset="22.145653131862474" xlink:href="#id20">August</textPath></text><line stroke="#e1ed5e" stroke-width="0.3" x1="26.387840678322732" x2="22.057713659400548" y1="142.50000000000003" y2="145.00000000000006" /><path d="M 25.521815274538298 143.00000000000003 a86.0,86.0 0 0,1 -11.493303480769221,-40.785679425670985" fill="none" id="id21" stroke="none" /><text fill="#e1ed5e" style="font-size:6.75px; font-family:Arial;" text-anchor="middle"><textPath startOffset="21.40746469413373" xlink:href="#id21">September</textPath></text><path d="M 80.28708602549918 107.23885506374661 l -20.88125120402096 7.667884677583272 a43.24461973768361,43.24461973768361 0 0,0 -0.24991236656569613,-0.699049367883011 l 21.0098037406306 -7.30830035331934" fill="#fcff18" stroke="none" /><path d="M 80.05021161711548 106.5578916946017 l -21.251170590915837 6.985681875116731 a43.3698905393956,43.3698905393956 0 0,0 -0.2264223940950468,-0.7092649246020571 l 21.36795770078814 -6.619847916823281" fill="#faff18" stroke="none" /><path d="M 79.94057633289273 106.21446072829308 l -24.771071474326956 7.674141262960082 a46.93257461398851,46.93257461398851 0 0,0 -0.23181044526986275,-0.7716215800420404 l 24.89915823960045 -7.247782079327318" fill="#ceff1d" stroke="none" /><path d="M 79.83685265289637 105.86919833188381 l -22.3995645025087 6.520186771929364 a44.329237566686366,44.329237566686366 0 0,0 -0.20640855687880896,-0.73247115119342 l 22.508191551462083 -6.134707696832948" fill="#eeff19" stroke="none" /><path d="M 79.64726062577567 105.17358676015961 l -23.30702200512681 5.924553852302653 a45.048235134751565,45.048235134751565 0 0,0 -0.18408097538041154,-0.7511131973389534 l 23.405290507023516 -5.5235848303556" fill="#e5ff1a" stroke="none" /><path d="M 79.407916724674 104.11899336999214 l -24.075045821240447 4.815683425230148 a45.55195792898936,45.55195792898936 0 0,0 -0.14679380413628149,-0.7680872123983573 l 24.154165917658887 -4.401693647798477" fill="#dfff1b" stroke="none" /><path d="M 79.34024301695615 103.76489593502545 l -23.27453987468361 4.2413964808831945 a44.657845432039785,44.657845432039785 0 0,0 -0.1309648362540838,-0.755370372962658 l 23.34391952842993 -3.8412330749999444" fill="#eaff1a" stroke="none" /><path d="M 79.22317932658666 103.0534771498775 l -29.322548686523998 4.309404879498436 a50.63752405126,50.63752405126 0 0,0 -0.11901140380938048,-0.8611072325002054 l 29.39220460688859 -3.8054093387981447" fill="#a2ff22" stroke="none" /><path d="M 79.13060592940153 102.33845913500099 l -26.837215946341693 3.0071660238632436 a48.00517000956769,48.00517000956769 0 0,0 -0.08473508575074049,-0.8197350891652391 l 26.8848834245741 -2.546026412415073" fill="#c1ff1e" stroke="none" /><path d="M 79.06263194458094 101.62068470465958 l -9.946156741286394 0.7698954356671144 a30.975909627903505,30.975909627903505 0 0,0 -0.036486728738248785,-0.5305090281179182 l 9.95790743118971 -0.5990429833948528" fill="#ff5c08" stroke="none" /><path d="M 79.03789590574601 101.26102812881392 l -25.107092397104857 1.5103803321994738 a46.15248173410838,46.15248173410838 0 0,0 -0.0407865096961721,-0.7912473919021061 l 25.129320496257602 -1.0791611469206368" fill="#d8ff1c" stroke="none" /><path d="M 79.00696218219943 100.54070618675478 l -20.468911780100736 0.5272065592266719 a41.47570013986429,41.47570013986429 0 0,0 -0.0122226289194651,-0.7119068584646137 l 20.47494584061887 -0.1757527847930058" fill="#ffeb16" stroke="none" /><line stroke="#e1ed5e" stroke-width="0.3" x1="15.003131293944662" x2="10.003315487706104" y1="100.72959589197737" y2="100.7725132973878" /><path d="M 14.003168132696942 100.73817937305945 a86.0,86.0 0 0,1 10.791469493833604,-42.45332614584628" fill="none" id="id22" stroke="none" /><text fill="#e1ed5e" style="font-size:6.75px; font-family:Arial;" text-anchor="middle"><textPath startOffset="22.145653131862435" xlink:href="#id22">October</textPath></text><path d="M 79.00696218219943 99.45929381324524 l -24.7890572465826 -0.6384781818322588 a45.79727834991222,45.79727834991222 0 0,0 0.02698836448916797,-0.7857367852136086 l 24.77444419509658 1.063921231610006" fill="#dcff1b" stroke="none" /><path d="M 79.03789590574601 98.7389718711861 l -33.9418297440155 -2.041856192401445 a55.00319077795764,55.00319077795764 0 0,0 0.06478862205376036,-0.9420123455136503 l 33.90177716079668 2.6242119620694204" fill="#71ff27" stroke="none" /><path d="M 79.22317932658666 96.9465228501225 l -19.1946499868167 -2.8209525439876733 a40.40083403804674,40.40083403804674 0 0,0 0.10673228518096785,-0.6852978354370661 l 19.143396209497464 3.150038561356189" fill="#ffdd14" stroke="none" /><path d="M 79.2786578344484 96.59031103205396 l -19.517471379508866 -3.211592488229268 a40.77993972084845,40.77993972084845 0 0,0 0.11959238239829215,-0.6897770812344587 l 19.45946417961834 3.5461626023843196" fill="#ffe215" stroke="none" /><path d="M 79.34024301695615 96.23510406497455 l -20.65960541457871 -3.764868314202088 a41.999845935372306,41.999845935372306 0 0,0 0.13534691895355846,-0.7081922721291097 l 20.591932203342992 4.118963151364512" fill="#fff216" stroke="none" /><path d="M 79.48165901384962 95.52812308129327 l -21.491545946326486 -4.683982410155571 a42.99605051780226,42.99605051780226 0 0,0 0.16336275367803305,-0.719806435156343 l 21.40797233109079 5.052223179250922" fill="#ffff18" stroke="none" /><path d="M 79.56144815229197 95.17655741523228 l -24.697495918903687 -5.828541789066417 a46.37593750093103,46.37593750093103 0 0,0 0.18950637652764077,-0.7732506854423318 l 24.593802015859747 6.251648299116866" fill="#d5ff1c" stroke="none" /><path d="M 79.73907114497095 94.47779374421319 l -20.36811051270219 -5.551419093201287 a42.111091393057094,42.111091393057094 0 0,0 0.19608028651420056,-0.6958197632946111 l 20.269811734113407 5.900246780398911" fill="#fff417" stroke="none" /><path d="M 79.94057633289273 93.78553927170692 l -24.800893217790893 -7.683380115316024 a46.96379468407305,46.96379468407305 0 0,0 0.24518518944604226,-0.7680391138033471 l 24.665343312567597 8.107988262810762" fill="#ceff1d" stroke="none" /><path d="M 80.05021161711548 93.44210830539832 l -27.690641578555773 -9.102463892900037 a50.14835295438819,50.14835295438819 0 0,0 0.2758507547793522,-0.8155037410382046 l 27.530305402204057 9.576469308412403" fill="#a8ff21" stroke="none" /><path d="M 80.41425534168474 92.42381321644754 l -28.86804469469461 -11.166779844139965 a51.95256009738736,51.95256009738736 0 0,0 0.32888772277373163,-0.829011906751653 l 28.672098296954747 11.6606927681052" fill="#93ff23" stroke="none" /><path d="M 80.68587082218212 91.75594674310238 l -17.213779223456676 -7.347538755909245 a39.716316970053086,39.716316970053086 0 0,0 0.2730328810261814,-0.6247526640006168 l 17.08511246041352 7.641953489685728" fill="#ffd413" stroke="none" /><path d="M 80.83023694016515 91.42560881287825 l -22.147698939538905 -9.906384028298152 a45.26225489999999,45.26225489999999 0 0,0 0.3233353043186086,-0.7065459926679988 l 21.97437917036525 10.285119003180823" fill="#e3ff1b" stroke="none" /><path d="M 81.1358732173502 90.77261029715801 l -22.919297072092238 -11.210976698582886 a46.51431317545084,46.51431317545084 0 0,0 0.3570086206912041,-0.7142563919764151 l 22.72346853818929 11.602764946723072" fill="#d3ff1c" stroke="none" /><path d="M 81.29705330413844 90.45014215332179 l -25.661336202297395 -13.102861109152549 a49.813003053015514,49.813003053015514 0 0,0 0.3954012223363985,-0.7582339794354329 l 25.432626910986055 13.541441331692468" fill="#acff21" stroke="none" /><path d="M 81.63589988554816 89.8137432299009 l -19.241681578478953 -10.673036414816073 a43.00354553883456,43.00354553883456 0 0,0 0.3636188034991034,-0.6424795845021032 l 19.05562940995848 11.00177276941728" fill="#ffff18" stroke="none" /><line stroke="#e1ed5e" stroke-width="0.3" x1="26.387840678322718" x2="22.05771365940052" y1="57.49999999999999" y2="54.99999999999999" /><path d="M 25.521815274538284 56.99999999999999 a86.0,86.0 0 0,1 29.574782752854787,-30.34633250058573" fill="none" id="id23" stroke="none" /><text fill="#e1ed5e" style="font-size:6.75px; font-family:Arial;" text-anchor="middle"><textPath startOffset="21.40746469413373" xlink:href="#id23">November</textPath></text><path d="M 81.81346652052679 89.5 l -22.242035092747273 -12.841444948122746 a46.682889896245484,46.682889896245484 0 0,0 0.40664418329239027,-0.6905707241404017 l 22.018317199325104 13.221366840556719" fill="#d1ff1c" stroke="none" /><path d="M 81.99639281039701 89.18935116829357 l -19.049328228040533 -11.438574269282308 a43.21976343828865,43.21976343828865 0 0,0 0.38739733560692646,-0.6327844336738697 l 18.850162927978214 11.76389581908072" fill="#fcff18" stroke="none" /><path d="M 82.18462484594161 88.88188828441811 l -21.716154030415346 -13.552486234786949 a46.5980708065435,46.5980708065435 0 0,0 0.429328681210965,-0.6749759964621675 l 21.48030765757849 13.923275905927788" fill="#d2ff1c" stroke="none" /><path d="M 82.98947788004972 87.6856937992154 l -17.126333465544313 -12.398144683878371 a42.14297258134259,42.14297258134259 0 0,0 0.42925222494684195,-0.5823630834171859 l 16.91097922101365 12.690314076564421" fill="#fff417" stroke="none" /><path d="M 83.2033758604659 87.39550010848427 l -18.309991516213096 -13.740158984480525 a43.89208942500873,43.89208942500873 0 0,0 0.457414141926243,-0.5987697949726638 l 18.071425396932547 14.052449692694072" fill="#f4ff19" stroke="none" /><path d="M 83.64595745247003 86.82634096563983 l -18.624905923485517 -15.002905824045978 a44.91598427462016,44.91598427462016 0 0,0 0.4888424320472437,-0.5963082824300227 l 18.364616672199645 15.320416388174493" fill="#e7ff1a" stroke="none" /><path d="M 84.34580500576568 86.00192230759919 l -29.51327269114138 -26.39095042828906 a60.59186190936317,60.59186190936317 0 0,0 0.6999869052135084,-0.769408228486971 l 29.055888085086007 26.89369623233369" fill="#36ff2f" stroke="none" /><path d="M 84.83555147118756 85.47280134310135 l -14.916455640270582 -14.289627079501635 a41.65657500505315,41.65657500505315 0 0,0 0.49911162333918807,-0.5121324948801569 l 14.668957215780592 14.543582266449521" fill="#ffee16" stroke="none" /><path d="M 85.08716467003674 85.21462403516908 l -15.237609956811081 -15.107374756846994 a42.45734208236719,42.45734208236719 0 0,0 0.5175915534710271,-0.5131677206221026 l 14.976026483210077 15.366722487697771" fill="#fff817" stroke="none" /><path d="M 85.60350026404147 84.71141617570332 l -11.73811349215184 -12.465469756904259 a38.12224414657529,38.12224414657529 0 0,0 0.4802862310421301,-0.44454576519550426 l 11.522397489795756 12.665133268232129" fill="#ffbf11" stroke="none" /><path d="M 85.86807049272753 84.46653392183569 l -15.820953451044675 -17.38999926581509 a44.50988393346874,44.50988393346874 0 0,0 0.5695886888073649,-0.509329717789692 l 15.520099735413918 17.65902451348818" fill="#ecff1a" stroke="none" /><path d="M 86.40962598614128 83.9905735841838 l -11.644115455638657 -13.716738728030496 a38.99261921114585,38.99261921114585 0 0,0 0.5140075131379328,-0.42880334877036297 l 11.406933608338814 13.914604260712741" fill="#ffcb12" stroke="none" /><path d="M 87.25179093698888 83.31218511350988 l -13.13594591558108 -17.195374873024367 a42.63871512176518,42.63871512176518 0 0,0 0.5854640981927093,-0.43934317401241446 l 12.838828828477618 17.418337074300783" fill="#fffa17" stroke="none" /><path d="M 87.54013794807813 83.09580414077388 l -14.692772914266634 -19.933568286944706 a45.76337457941657,45.76337457941657 0 0,0 0.6363702098361367,-0.4606829564501662 l 14.34842169405653 20.18285201476795" fill="#dcff1b" stroke="none" /><path d="M 88.4268655584334 82.4767994020092 l -14.406533979972856 -21.813328629980248 a47.14133751810776,47.14133751810776 0 0,0 0.6790919958975481,-0.4401792271840599 l 14.029956351818281 22.057421698868215" fill="#ccff1d" stroke="none" /><path d="M 89.03521579738668 82.08984904055464 l -11.539015397921352 -18.84811446183133 a43.099780431483055,43.099780431483055 0 0,0 0.6343204919494431,-0.380891229907573 l 11.213762149414475 19.043419692274824" fill="#feff18" stroke="none" /><line stroke="#e1ed5e" stroke-width="0.3" x1="56.869717070023135" x2="54.33264160355391" y1="26.7553504044142" y2="22.446841604673864" /><path d="M 56.362301976729285 25.89364864446614 a86.0,86.0 0 0,1 42.16139366436587,-11.88097634709845" fill="none" id="id24" stroke="none" /><text fill="#e1ed5e" style="font-size:6.75px; font-family:Arial;" text-anchor="middle"><textPath startOffset="22.145653131862474" xlink:href="#id24">December</textPath></text><path d="M 89.34428304082924 81.90426304109057 l -13.34381851761509 -22.660721080280904 a47.297638154582145,47.297638154582145 0 0,0 0.7031751849654233,-0.40597838232724986 l 12.952850864789268 22.886446359884328" fill="#caff1d" stroke="none" /><path d="M 90.61103034731259 81.2157712731953 l -11.612842633965183 -23.233464402811602 a46.97406364429627,46.97406364429627 0 0,0 0.72438424103416,-0.3543326316470363 l 11.21229814366897 23.429390784555853" fill="#ceff1d" stroke="none" /><path d="M 90.93487009805054 81.0573650232925 l -12.518424469203104 -26.15869245873712 a49.9997955568989,49.9997955568989 0 0,0 0.777404645402095,-0.36386462750989124 l 12.067531109929487 26.369733317817555" fill="#aaff21" stroke="none" /><path d="M 91.92203290615298 80.6158196554323 l -10.280376223628195 -24.669160497150752 a47.72552366060435,47.72552366060435 0 0,0 0.7589393197051849,-0.30865401426364864 l 9.85538244273257 24.842001767993693" fill="#c5ff1e" stroke="none" /><path d="M 92.592206182469 80.34994680014964 l -8.221972888831864 -21.809759916768563 a44.30807726544107,44.30807726544107 0 0,0 0.7140159055224953,-0.2621965306586816 l 7.846367831655242 21.947687296435966" fill="#efff19" stroke="none" /><path d="M 92.93061703081487 80.22567764915836 l -8.288884850500558 -23.185486155901266 a45.622598976353956,45.622598976353956 0 0,0 0.7397253150359056,-0.25731486347877125 l 7.889653763419649 23.324359451948624" fill="#deff1b" stroke="none" /><path d="M 93.61358852112211 79.99465700312896 l -2.365298832839073 -7.4092649052670145 a28.77765035245551,28.77765035245551 0 0,0 0.47189778394349957,-0.14619513973844497 l 2.2377604160239573 7.448776632812102" fill="#ff3c05" stroke="none" /><path d="M 93.95794788825049 79.88797359093562 l -7.003887096793751 -23.31366225440148 a45.34299246553181,45.34299246553181 0 0,0 0.7473820405047278,-0.21755201952836323 l 6.602645043907399 23.430457968232364" fill="#e2ff1b" stroke="none" /><path d="M 94.6519064749342 79.69241777938228 l -4.535134199446578 -17.22064324513911 a38.80780716380726,38.80780716380726 0 0,0 0.6456782097411671,-0.16412887601120768 l 4.238850696480032 17.29595735298558" fill="#ffc812" stroke="none" /><path d="M 95.35216902796891 79.52079915486377 l -5.401946422308555 -23.801972662697327 a45.40727202669899,45.40727202669899 0 0,0 0.761626084123941,-0.16599286017216544 l 4.992557921565496 23.891196981003205" fill="#e1ff1b" stroke="none" /><path d="M 96.41257539226777 79.30868818359171 l -4.410711731426314 -25.439813165836455 a46.81934297944871,46.81934297944871 0 0,0 0.7930806471459085,-0.1305011186852795 l 3.973353581227333 25.5117802830174" fill="#d0ff1d" stroke="none" /><path d="M 96.76829788921471 79.25015418208739 l -4.148536716111639 -26.636581676876272 a47.957704655883205,47.957704655883205 0 0,0 0.8145385354016657,-0.11970911452907027 l 3.6906730751022887 26.703871864704226" fill="#c2ff1e" stroke="none" /><path d="M 97.84075906011542 79.11130261209362 l -2.555117011187732 -24.718439267942646 a45.85014814410228,45.85014814410228 0 0,0 0.7836018184657155,-0.07420790691644266 l 2.130415629337001 24.758658930364273" fill="#dbff1b" stroke="none" /><path d="M 98.1996594967304 79.07731436759882 l -2.0876880520501357 -24.262099715158225 a45.35175402288208,45.35175402288208 0 0,0 0.7762298351024569,-0.060085098457506585 l 1.6708892221724616 24.294362580610787" fill="#e2ff1b" stroke="none" /><path d="M 98.9189461498227 79.02784411241856 l -1.0264865584783103 -19.913565006390346 a40.94000365893825,40.94000365893825 0 0,0 0.7021683180408441,-0.030154128820997834 l 0.684492479836646 19.928251703637173" fill="#ffe515" stroke="none" /><path d="M 99.27912038922189 79.0123766808444 l -0.7989862841415243 -23.26161389227526 a44.275331575630446,44.275331575630446 0 0,0 0.7598209530933526,-0.019570292481213083 l 0.39955201697742776 23.271901902106517" fill="#efff19" stroke="none" /></svg>