<?xml version="1.0" encoding="utf-8" ?>
<svg baseProfile="full" height="200mm" version="1.1" viewBox="0,0,200,200" width="200mm" xmlns="http://www.w3.org/2000/svg" xmlns:ev="http://www.w3.org/2001/xml-events" xmlns:xlink="http://www.w3.org/1999/xlink"><defs /><rect fill="#1a1a1a" height="200" width="200" x="0" y="0" /><text alignment-baseline="middle" fill="#e1ed5e" style="dominant-baseline: central; font-size:9.0px; font-family:Arial;" text-anchor="middle" x="100.0" y="100.0">2018</text><line stroke="#e1ed5e" stroke-width="0.3" x1="100.0" x2="100.0" y1="15.0" y2="10.0" /><path d="M 100.0 14.0 a86.0,86.0 0 0,1 42.46469731375804,11.215312516191453" fill="none" id="id37" stroke="none" /><text fill="#e1ed5e" style="font-size:6.75px; font-family:Arial;" text-anchor="middle"><textPath startOffset="22.20632615414155" xlink:href="#id37">January</textPath></text><path d="M 100.0 79.0 l 0.0 -34.04491391659958 a55.04491391659958,55.04491391659958 0 0,0 0.9475077078136898,0.008155497980011642 l -0.5860272285411614 34.03986979522813" fill="#83ff25" stroke="none" /><path d="M 100.72285384407766 79.0124445844662 l 1.0844383268900333 -31.485907790078954 a52.50457737932986,52.50457737932986 0 0,0 0.9029766410508907,0.03888407362547215 l -1.6262558003302554 31.462575989929288" fill="#a1ff22" stroke="none" /><path d="M 101.08401301168833 79.027996857942 l 1.6426776857049639 -31.780284198191943 a52.82270971644246,52.82270971644246 0 0,0 0.9076399213724297,0.0547513187142951 l -2.1894796559170056 31.747299610097343" fill="#9dff22" stroke="none" /><path d="M 101.44485096284872 79.0497635885617 l 2.1290706917876077 -30.87137391781299 a51.94470341729022,51.94470341729022 0 0,0 0.8914943201073771,0.06919711708555547 l -2.660155201257326 30.830151538538967" fill="#a8ff21" stroke="none" /><path d="M 101.80526077348638 79.07773832637324 l 3.2077660288520273 -37.17674544813855 a58.314878601056,58.314878601056 0 0,0 0.9993361678715651,0.09489901061212261 l -3.847227323813837 37.116020893011246" fill="#5dff2a" stroke="none" /><path d="M 102.16513564639614 79.11191278185805 l 3.21057925716994 -30.97397599829332 a52.139926273345935,52.139926273345935 0 0,0 0.8919236949492355,0.10021801953032276 l -3.7432696556289007 30.914122025292393" fill="#a6ff21" stroke="none" /><path d="M 102.52436894288641 79.15227682838746 l 4.352463766734245 -35.94520522804288 a57.20775772851525,57.20775772851525 0 0,0 0.9765780267030549,0.12678785584309132 l -4.970556521945146 35.864959049035654" fill="#69ff28" stroke="none" /><path d="M 103.2404852339499 79.25152402106235 l 4.725928779526526 -30.25961011420924 a51.62643314349732,51.62643314349732 0 0,0 0.8768400425480702,0.14468612007583037 l -5.246098028213471 30.173777731193788" fill="#acff20" stroke="none" /><path d="M 103.59715602781102 79.31037775812273 l 5.272761539823369 -30.327137212568967 a51.78209326484841,51.78209326484841 0 0,0 0.8768554764040339,0.1602397335936828 l -5.794012137330304 30.231881997624548" fill="#aaff21" stroke="none" /><path d="M 103.95276090670814 79.375362276772 l 5.840301167254079 -30.473407982947194 a52.02801495132067,52.02801495132067 0 0,0 0.8781179117854605,0.1761421921997503 l -6.363985488506665 30.368361834670235" fill="#a7ff21" stroke="none" /><path d="M 104.307194497241 79.44645832069477 l 7.542518808284957 -35.992215998681 a57.774028912658466,57.774028912658466 0 0,0 0.9715866031176085,0.2123511996512449 l -8.160948135556094 35.85705130093388" fill="#63ff29" stroke="none" /><path d="M 105.01212808612495 79.60689891045804 l 8.739568583036009 -35.55912828449515 a57.617368329397635,57.617368329397635 0 0,0 0.961088189673759,0.24500277906904633 l -9.350365661394793 35.40342250925723" fill="#65ff29" stroke="none" /><path d="M 105.36241919743992 79.69619591428918 l 7.882648133501233 -29.846182755650954 a51.869576716895665,51.869576716895665 0 0,0 0.8612871850597229,0.23542232298872692 l -8.395233207784667 29.706073891835935" fill="#a9ff21" stroke="none" /><path d="M 105.71112130821622 79.79150937346287 l 7.641079973527672 -27.03754388818675 a49.096527946838386,49.096527946838386 0 0,0 0.8112845463508601,0.2368362059668716 l -8.105354737601958 26.902009353301175" fill="#ccff1d" stroke="none" /><path d="M 106.0581310904928 79.89281104454417 l 8.154991810667628 -27.066756862461794 a49.26859067027712,49.26859067027712 0 0,0 0.8099161031099,0.25164487570582045 l -8.619693286488246 26.922371851873454" fill="#caff1d" stroke="none" /><path d="M 106.40334571778207 80.00007090966166 l 8.632307040651929 -26.96176909824359 a49.309957925632666,49.309957925632666 0 0,0 0.8061407423987307,0.2657719283112438 l -9.095130605293077 26.80918344567311" fill="#c9ff1d" stroke="none" /><path d="M 106.74666289553966 80.11325718540242 l 9.141236297536059 -26.945086492575204 a49.45346880680367,49.45346880680367 0 0,0 0.8037789935836971,0.28042270824709675 l -9.60369729518303 26.7837429311559" fill="#c7ff1e" stroke="none" /><path d="M 108.43124777332544 80.76684994638697 l 14.807767178315068 -33.77910550802963 a57.88221709346908,57.88221709346908 0 0,0 0.9090757247720902,0.40787577878390185 l -15.387025021553937 33.519209398729195" fill="#62ff29" stroke="none" /><path d="M 108.76106565485865 80.91482961587045 l 12.751768711047724 -27.778547512013187 a51.565590246831974,51.565590246831974 0 0,0 0.8034945083790649,0.3772514453690727 l -13.228041430726387 27.554931084004114" fill="#adff20" stroke="none" /><path d="M 109.08828744355905 81.06846463323043 l 14.4957350343418 -30.195625102554473 a54.49480720230917,54.49480720230917 0 0,0 0.8421490826607709,0.4132388974483299 l -15.013355384013003 29.941631044971313" fill="#89ff24" stroke="none" /><path d="M 109.41281617654863 81.2277094730956 l 13.771206514465572 -27.464372483935627 a51.723572136071994,51.723572136071994 0 0,0 0.7924531847251254,0.40592530026489226 l -14.241920186779453 27.223254658358233" fill="#abff21" stroke="none" /><path d="M 110.36928655335952 81.73862282372117 l 18.39411901613567 -32.39393023333782 a58.25198424704544,58.25198424704544 0 0,0 0.8676862387073351,0.5026198747307123 l -18.949001987308332 32.07250620121706" fill="#5dff2a" stroke="none" /><line stroke="#e1ed5e" stroke-width="0.3" x1="143.23703022742887" x2="145.7803849466894" y1="26.81831364943548" y2="22.513508569990506" /><path d="M 143.74570117128098 25.957352633546492 a86.0,86.0 0 0,1 28.547481713284135,27.462654790039103" fill="none" id="id38" stroke="none" /><text fill="#e1ed5e" style="font-size:6.75px; font-family:Arial;" text-anchor="middle"><textPath startOffset="19.985693538727396" xlink:href="#id38">February</textPath></text><path d="M 110.99172775467656 82.1063720568725 l 32.770281604180546 -53.34732079469857 a83.60852970953536,83.60852970953536 0 0,0 1.2198120095864884,0.7638461684972903 l -33.6837127661393 52.77533028487833" fill="#4cd6ff" stroke="none" /><path d="M 111.2981086023043 82.29822771554956 l 18.218820287445624 -28.54507947940172 a54.86365271425399,54.86365271425399 0 0,0 0.7916902789685113,0.5149373797389282 l -18.707477592198416 28.227243175503265" fill="#85ff25" stroke="none" /><path d="M 111.60114157652 82.49532879139004 l 16.011563681823056 -24.159446373216976 a49.98359916569062,49.98359916569062 0 0,0 0.7130881746050477,0.4814803186503497 l -16.425056550834647 23.880254142267955" fill="#c1ff1e" stroke="none" /><path d="M 111.90073688211348 82.69761687909136 l 15.98073289211433 -23.234255642425698 a49.19954714222722,49.19954714222722 0 0,0 0.6936406597809359,0.4859396098308677 l -16.378304691478917 22.955731189830892" fill="#cbff1d" stroke="none" /><path d="M 112.48926042617603 83.11751280151076 l 18.382689834743417 -24.84899147097663 a51.90947528970766,51.90947528970766 0 0,0 0.7137647926803459,0.5375928439508364 l -18.807700781182145 24.52888203751995" fill="#a9ff21" stroke="none" /><path d="M 112.77801427241765 83.33499621200491 l 18.887043473886422 -24.632360265535446 a52.03987086692864,52.03987086692864 0 0,0 0.7061747157515169,0.5511805668017944 l -19.30825074479737 24.303601309510427" fill="#a7ff21" stroke="none" /><path d="M 113.6212207817346 84.01681056812373 l 20.12444143345641 -23.61409192287332 a52.02609353996291,52.02609353996291 0 0,0 0.6766023227593996,0.5867428669469483 l -20.527937554862575 23.2641840625067" fill="#a7ff21" stroke="none" /><path d="M 113.89432698308785 84.25364557470407 l 22.125934286205876 -25.075183827578005 a54.44131893368338,54.44131893368338 0 0,0 0.6973388863782486,0.6260777374472072 l -22.554284160180114 24.690607081361502" fill="#8aff24" stroke="none" /><path d="M 114.16331599549186 84.49514656593476 l 19.18998364616677 -21.007642838063493 a49.45305835849265,49.45305835849265 0 0,0 0.623560951217248,0.5795319460289623 l -19.548752481178862 20.67420630595989" fill="#c7ff1e" stroke="none" /><path d="M 114.42810811169701 84.74124197986012 l 19.396805469107424 -20.513511454553715 a49.231900655154305,49.231900655154305 0 0,0 0.6107492890226887,0.587540332143799 l -19.74703800174253 20.176588035647615" fill="#caff1d" stroke="none" /><path d="M 114.68862486808459 84.99185889309783 l 19.809558191264568 -20.24046820379159 a49.32128437839279,49.32128437839279 0 0,0 0.6016355879767107,0.5990519735627784 l -20.155029579408602 19.89648037957869" fill="#c9ff1d" stroke="none" /><path d="M 114.94478906791727 85.2469230424477 l 23.929201025723124 -23.622236664624364 a54.6246446340923,54.6246446340923 0 0,0 0.654808339853297,0.6748375534968984 l -24.33227362927953 23.20683491557735" fill="#88ff25" stroke="none" /><path d="M 115.4437574822437 85.77008943001954 l 20.808871626926706 -19.17333800752949 a49.295335812407146,49.295335812407146 0 0,0 0.5696107963261274,0.6289784681688607 l -21.13582606386887 18.812306752091082" fill="#c9ff1d" stroke="none" /><path d="M 115.68641384162765 86.03803664274999 l 27.308085104579803 -24.30603243266507 a57.55837420751557,57.55837420751557 0 0,0 0.652350541934268,0.7457494396244986 l -27.72242751009192 23.832367436837625" fill="#65ff29" stroke="none" /><path d="M 115.9244219780498 86.31012108654704 l 23.456943178370622 -20.165423412810537 a51.93335553559031,51.93335553559031 0 0,0 0.5769286024977757,0.6829014927087124 l -23.800582394355516 19.75866297047272" fill="#a8ff21" stroke="none" /><path d="M 116.15771136456269 86.58626213691792 l 25.81732509315298 -21.43291356751487 a54.5544938712851,54.5544938712851 0 0,0 0.5936087673141408,0.727694159636419 l -26.18243235254353 20.985335238270352" fill="#88ff25" stroke="none" /><path d="M 116.38621287248628 86.86637796730983 l 22.098020633474786 -17.711661195245426 a49.32005399381576,49.32005399381576 0 0,0 0.5252489914572506,0.6670128792805001 l -22.399623705526 17.32865592201189" fill="#c9ff1d" stroke="none" /><path d="M 116.82858285166822 87.43820079747576 l 27.114885505823782 -20.240073102164317 a54.836039590573954,54.836039590573954 0 0,0 0.5581196115327919,0.7612745229032931 l -27.4592677298702 19.770336135589528" fill="#85ff25" stroke="none" /><path d="M 117.04232023915458 87.72973835380427 l 25.448514805715405 -18.32261868051274 a52.358336389677795,52.358336389677795 0 0,0 0.5203106691708992,0.7359425423307819 l -25.760138094690188 17.881849637850166" fill="#a3ff21" stroke="none" /><path d="M 117.2510076193507 88.02491185347247 l 24.392008373568512 -16.932138503995088 a50.69288444753573,50.69288444753573 0 0,0 0.49142052562858296,0.7210989832520355 l -24.679853364865828 16.509761497472645" fill="#b8ff1f" stroke="none" /><path d="M 117.45458315368197 88.32363383020206 l 23.549073744659964 -15.75331851704641 a49.33241815537372,49.33241815537372 0 0,0 0.46608179752171136,0.7098745536597036 l -23.816752177539602 15.345625899409033" fill="#c9ff1d" stroke="none" /><line stroke="#e1ed5e" stroke-width="0.3" x1="172.23445277983987" x2="176.4835382374775" y1="55.19839476539836" y2="52.563006222186495" /><path d="M 173.08426987136738 54.67131705675599 a86.0,86.0 0 0,1 12.851231095245387,41.99856678651699" fill="none" id="id39" stroke="none" /><text fill="#e1ed5e" style="font-size:6.75px; font-family:Arial;" text-anchor="middle"><textPath startOffset="22.20632615414155" xlink:href="#id39">March</textPath></text><path d="M 118.03404312379186 89.2402003453031 l 24.05635114766784 -14.352938883153753 a49.01276289699834,49.01276289699834 0 0,0 0.42603836639651144,0.7282376705371723 l -24.29984918853468 13.936721800262685" fill="#cdff1d" stroke="none" /><path d="M 118.21658344932153 89.55222093294921 l 24.446834219096075 -14.021022302041265 a49.18220661570533,49.18220661570533 0 0,0 0.41486914696899757,0.7380059201144201 l -24.684561007357505 13.598132871992052" fill="#cbff1d" stroke="none" /><path d="M 118.3937258080291 89.86733742301442 l 24.891713263154198 -13.712248083448179 a49.41871103123987,49.41871103123987 0 0,0 0.40403773481557115,0.7486205599159715 l -25.124059097188233 13.281746540199748" fill="#c8ff1d" stroke="none" /><path d="M 118.56541770881063 90.18545643968196 l 25.969391711011866 -13.728628689120763 a50.37489662149846,50.37489662149846 0 0,0 0.39865869638225565,0.7700817108960096 l -26.20185984055424 13.279574255964409" fill="#bcff1f" stroke="none" /><path d="M 118.89224826269711 90.83032412892265 l 25.319778394187733 -12.289387571760757 a49.14463047936007,49.14463047936007 0 0,0 0.36283201297616496,0.7642167530275285 l -25.527568601005655 11.85172840309269" fill="#cbff1d" stroke="none" /><path d="M 119.04729006885535 91.15688171328212 l 25.8895490245263 -12.019785680064777 a49.54372078913401,49.54372078913401 0 0,0 0.35246271880530855,0.7766048801836603 l -26.092614060294956 11.572358791039052" fill="#c6ff1e" stroke="none" /><path d="M 119.34039704204932 91.81776055985345 l 26.297234329202006 -11.125431780296726 a49.553804749332386,49.553804749332386 0 0,0 0.3255881136992201,0.7884374427401825 l -26.484844129787422 10.67111976710324" fill="#c6ff1e" stroke="none" /><path d="M 119.47837535516314 92.15188598940014 l 26.23996503596127 -10.572454503080047 a49.28979602804105,49.28979602804105 0 0,0 0.31030614094868425,0.7896952820056298 l -26.418064726791652 10.119210216178633" fill="#caff1d" stroke="none" /><path d="M 119.61058180528143 92.48833698450437 l 26.689507141127866 -10.223183875137442 a49.58047025472439,49.58047025472439 0 0,0 0.2984163781013723,0.7996075300228814 l -26.861528107730862 9.762253208085228" fill="#c6ff1e" stroke="none" /><path d="M 119.85752413597 93.16781622104841 l 26.995301296427115 -9.288008835465561 a49.548439540762395,49.548439540762395 0 0,0 0.27054086510141195,0.8088827515619474 l -27.151179455300298 8.821952980981301" fill="#c6ff1e" stroke="none" /><path d="M 120.08093135843002 93.85539295169968 l 32.21366026747635 -9.857126663997645 a54.688022410026946,54.688022410026946 0 0,0 0.26769553344637337,0.9025362602029788 l -32.378561698034424 9.301161017048138" fill="#87ff25" stroke="none" /><path d="M 120.28053869075195 94.5502522615342 l 33.49720452267499 -9.001305013442213 a55.68553304735186,55.68553304735186 0 0,0 0.24078336487890623,0.9278365265945729 l -33.647184219424204 8.42337206129879" fill="#7bff26" stroke="none" /><path d="M 120.37134235888165 94.90015583598534 l 27.541583635437405 -6.894871339181482 a49.39151422400115,49.39151422400115 0 0,0 0.19937049293554682,0.8265194061437386 l -27.65618692863377 6.419766701378338" fill="#c8ff1d" stroke="none" /><path d="M 120.45610955862082 95.25157060432595 l 27.868510121892275 -6.4690527931135655 a49.609482701616656,49.609482701616656 0 0,0 0.18593070221631197,0.833490880688752 l -27.975735211110624 5.988383742874849" fill="#c5ff1e" stroke="none" /><path d="M 120.73433829027371 96.67025291283417 l 28.190045277270766 -4.527066156391243 a49.551234311653126,49.551234311653126 0 0,0 0.12799344924835865,0.8433169107167973 l -28.263794619958425 4.041150133282364" fill="#c6ff1e" stroke="none" /><path d="M 120.78858239683441 97.02765380044208 l 28.73026866124231 -4.107846472519699 a50.02245234278031,50.02245234278031 0 0,0 0.1145371259799806,0.8534346266363164 l -28.796721786280127 3.612693503818719" fill="#c0ff1e" stroke="none" /><path d="M 120.87857604477298 97.74499172005257 l 28.872755545993762 -3.118426404247719 a50.04067141195986,50.04067141195986 0 0,0 0.08512364836315879,0.8571835222314769 l -28.922156320039146 2.620967351311807" fill="#c0ff1e" stroke="none" /><path d="M 120.94382443527127 98.46500227214037 l 28.634655835662745 -2.0986678809130117 a49.7114597626319,49.7114597626319 0 0,0 0.055201993427254986,0.8539504053390199 l -28.666538420094415 1.6054584113209567" fill="#c4ff1e" stroke="none" /><path d="M 120.96714384426684 98.82574320788733 l 27.901097364075085 -1.5625901806421099 a48.944819237064976,48.944819237064976 0 0,0 0.03986996441952056,0.8415919340404335 l -27.9238609367281 1.0820871399786764" fill="#ceff1d" stroke="none" /><path d="M 120.98425023603335 99.18683210126433 l 28.14990040590546 -1.0908464731983427 a49.17102836054242,49.17102836054242 0 0,0 0.025494722891415616,0.8460457346893325 l -28.16450682325252 0.6061305910840112" fill="#cbff1d" stroke="none" /><line stroke="#e1ed5e" stroke-width="0.3" x1="184.98032266829074" x2="189.97916517819016" y1="98.17113171792111" y2="98.06355123074" /><path d="M 185.9800911702706 98.14961562048488 a86.0,86.0 0 0,1 -9.607161424134198,41.387399972396054" fill="none" id="id40" stroke="none" /><text fill="#e1ed5e" style="font-size:6.75px; font-family:Arial;" text-anchor="middle"><textPath startOffset="21.466115282336823" xlink:href="#id40">April</textPath></text><path d="M 120.99513854157772 99.54816195383933 l 28.685052229683443 -0.6173332901714155 a49.69169430010749,49.69169430010749 0 0,0 0.011043370647964589,0.8553212269063062 l -28.691428607449122 0.12347580520464657" fill="#c4ff1e" stroke="none" /><path d="M 120.99824983174949 100.27111621757518 l 31.188263556523122 0.4026832767461197 a52.19086304500918,52.19086304500918 0 0,0 -0.019330345770449633,0.8982052108176026 l -31.176711148067668 -0.9394783033538372" fill="#a5ff21" stroke="none" /><path d="M 120.9904718944345 100.63252640178507 l 28.621337739164 0.8624747392758114 a49.63432968754782,49.63432968754782 0 0,0 -0.03308451204694646,0.853764248207165 l -28.60225109426585 -1.3550162344969827" fill="#c5ff1e" stroke="none" /><path d="M 120.9764740272857 100.99374915477107 l 28.481350957597463 1.349288655664161 a49.513293956436215,49.513293956436215 0 0,0 -0.04765925478276275,0.8509880098226752 l -28.453905351927173 -1.8393483818222596" fill="#c7ff1e" stroke="none" /><path d="M 120.92983693683757 101.71520430193887 l 31.04944200640772 2.54450795115649 a52.153529007526174,52.153529007526174 0 0,0 -0.08102523521170495,0.8941067188372105 l -31.00104217491894 -3.078596058542271" fill="#a6ff21" stroke="none" /><path d="M 120.89721153311464 102.0752229133903 l 28.386231552490106 2.8189291211979324 a49.525856746852014,49.525856746852014 0 0,0 -0.09154665595720937,0.8476083369821682 l -28.333502595031845 -3.307133780064892" fill="#c7ff1e" stroke="none" /><path d="M 120.8583938346157 102.4346265915055 l 28.858097174956306 3.368365336251361 a50.05401276239964,50.05401276239964 0 0,0 -0.10725500144985647,0.8549278906926141 l -28.795840664259604 -3.86461098123137" fill="#c0ff1e" stroke="none" /><path d="M 120.70491114924044 103.5080841355445 l 29.54464312524242 5.005821714998715 a50.965716885138704,50.965716885138704 0 0,0 -0.15399790738551106,0.8637020473742986 l -29.45409877551772 -5.513642513106232" fill="#b4ff20" stroke="none" /><path d="M 120.5718875245553 104.21870165774334 l 28.370837177468463 5.818041620599411 a49.96125015342835,49.96125015342835 0 0,0 -0.1800174294946534,0.8409814997108918 l -28.266485709249366 -6.305536939726473" fill="#c1ff1e" stroke="none" /><path d="M 120.49622156327973 104.57218783832717 l 30.032796538607947 6.6995561431082 a51.770975292377074,51.770975292377074 0 0,0 -0.2015109629343921,0.8681039542894767 l -29.913025009743002 -7.2155287547462414" fill="#aaff21" stroke="none" /><path d="M 120.41448212921028 104.9243191809786 l 30.147603238810728 7.272113000456073 a52.01228157579112,52.01228157579112 0 0,0 -0.21743284952637731,0.868536150383509 l -30.01795907498929 -7.789976990236978" fill="#a7ff21" stroke="none" /><path d="M 120.32669344350535 105.2749913415812 l 27.672072109813254 7.181194579855045 a49.588688854937786,49.588688854937786 0 0,0 -0.22152429967479934,0.8243743281521629 l -27.544359733796675 -7.656459841182756" fill="#c6ff1e" stroke="none" /><path d="M 120.13307415673323 105.97154293290107 l 24.13076789698829 7.157273418801025 a46.16983357294593,46.16983357294593 0 0,0 -0.2325491576126287,0.7599841022822806 l -24.003991966869528 -7.571584493635363" fill="#f2ff19" stroke="none" /><path d="M 119.67450827220406 107.3425965602758 l 24.693404425537707 9.215666480092429 a47.3570243160237,47.3570243160237 0 0,0 -0.2915968640710125,0.7612673978094932 l -24.531113281873186 -9.639357444735067" fill="#e3ff1b" stroke="none" /><path d="M 119.54520255179757 107.68017299344265 l 25.93045301218288 10.189219804917535 a48.860520340617256,48.860520340617256 0 0,0 -0.3143299316209948,0.7801411122732397 l -25.751220466304492 -10.634060285033588" fill="#cfff1d" stroke="none" /><path d="M 119.41010516605496 108.01547362559984 l 25.39849582967626 10.488401361611716 a48.478903790587076,48.478903790587076 0 0,0 -0.32515266817984023,0.7685648590316966 l -25.21419218030411 -10.924040746309576" fill="#d4ff1c" stroke="none" /><path d="M 119.12269723197855 108.67885076344098 l 24.116060491438905 10.945092497584774 a47.483568932593414,47.483568932593414 0 0,0 -0.3442002130750625,0.7413766374752256 l -23.92408566152401 -11.35858920233883" fill="#e1ff1b" stroke="none" /><path d="M 118.97047184881838 109.00673069616215 l 30.29817849475987 14.384857501768005 a54.53958475363851,54.53958475363851 0 0,0 -0.40994742090226755,0.8446131094738631 l -30.04607781724289 -14.904259567207143" fill="#89ff24" stroke="none" /><path d="M 118.81262510543309 109.33194174019688 l 26.800132417773785 13.294118867015454 a50.9162279383706,50.9162279383706 0 0,0 -0.3962284618644788,0.7817963454625336 l -26.567325286123037 -13.753469424180683" fill="#b5ff20" stroke="none" /><path d="M 118.64920377521936 109.65438752849418 l 26.282781939059703 13.606165991052105 a50.5958169245626,50.5958169245626 0 0,0 -0.4070493506532074,0.769983970882907 l -26.044680080181603 -14.056564977021146" fill="#b9ff1f" stroke="none" /><line stroke="#e1ed5e" stroke-width="0.3" x1="174.80103733775053" x2="179.2010983576182" y1="140.37084112569926" y2="142.7455964860345" /><path d="M 175.68104954172406 140.8457921977663 a86.0,86.0 0 0,1 -30.038265399797805,32.042727171017184" fill="none" id="id41" stroke="none" /><text fill="#e1ed5e" style="font-size:6.75px; font-family:Arial;" text-anchor="middle"><textPath startOffset="22.206326154141568" xlink:href="#id41">May</textPath></text><path d="M 118.48025628344425 109.97397251340804 l 26.371650863414285 14.233034261571701 a50.967369480034336,50.967369480034336 0 0,0 -0.4233291231199589,0.7684653227186097 l -26.122745330842818 -14.684870102688116" fill="#b4ff20" stroke="none" /><path d="M 118.12598468904814 110.60418214915192 l 23.868349379355514 13.963617908781025 a48.65286110328208,48.65286110328208 0 0,0 -0.42911620611074713,0.7192234441596713 l -23.62445229754654 -14.3724034468268" fill="#d2ff1c" stroke="none" /><path d="M 117.75023020441432 111.22182372390056 l 23.66258083326444 14.959654489292454 a48.994802984300165,48.994802984300165 0 0,0 -0.4568068640059787,0.7089743972872741 l -23.40156910588141 -15.364750486501181" fill="#cdff1d" stroke="none" /><path d="M 117.35343817320211 111.8261652097733 l 8.05759914109054 5.491159601087906 a30.75078138833616,30.75078138833616 0 0,0 -0.3018541990212896,0.43484348704015224 l -7.961884034907113 -5.629044350315078" fill="#ff2c04" stroke="none" /><path d="M 117.14729908036423 112.12312394758627 l 23.73906538503952 16.78349638120243 a50.07282194994178,50.07282194994178 0 0,0 -0.5036377070764846,0.6995087257305657 l -23.446647885587435 -17.189638712384127" fill="#c0ff1e" stroke="none" /><path d="M 116.71984013943494 112.70617746262583 l 24.543249731400014 18.651547143754666 a51.82614666534839,51.82614666534839 0 0,0 -0.5458852539157905,0.705630276758913 l -24.218557660266153 -19.07125541462683" fill="#aaff21" stroke="none" /><path d="M 116.27256486870786 113.27417163493432 l 28.224039009067745 23.02345948903853 a57.423564691402404,57.423564691402404 0 0,0 -0.6313967041722238,0.760558004538702 l -27.823546305001976 -23.505878750691004" fill="#67ff28" stroke="none" /><path d="M 115.80600337817218 113.82643327865902 l 22.303370527179663 19.51005938092623 a50.63246115191808,50.63246115191808 0 0,0 -0.5794792361137054,0.6510510647909525 l -21.96423244141762 -19.89108461545805" fill="#b9ff1f" stroke="none" /><path d="M 115.56566222782051 114.09645910891815 l 22.910688825057434 20.74820739732772 a51.90934765796807,51.90934765796807 0 0,0 -0.6054943413056255,0.6571445209024801 l -22.550148075756084 -21.139503173031535" fill="#a9ff21" stroke="none" /><path d="M 115.32070863581623 114.36230785411682 l 21.2267111457217 19.898855036807227 a50.095320892538275,50.095320892538275 0 0,0 -0.5951644937741326,0.6240275922858886 l -20.881040100568605 -20.261289745675622" fill="#bfff1e" stroke="none" /><path d="M 114.81725581225074 114.88116024355365 l 19.908225907292223 19.994086870413586 a49.21526127040872,49.21526127040872 0 0,0 -0.6054650044308487,0.5925749403267415 l -19.56111095048558 -20.3338119136629" fill="#caff1d" stroke="none" /><path d="M 114.29624159901734 115.38237550388516 l 18.576874499295368 19.98822258686168 a48.28789673728076,48.28789673728076 0 0,0 -0.6137172092608469,0.5606161195651995 l -18.230057740567656 -20.305031473013464" fill="#d6ff1c" stroke="none" /><path d="M 114.0293411484842 115.62618273729858 l 18.46619603420582 20.568047397183392 a48.64136338364121,48.64136338364121 0 0,0 -0.6278387385802594,0.5539946892386541 l -18.109414942718974 -20.882865228194337" fill="#d2ff1c" stroke="none" /><path d="M 113.75828350139079 115.86535959552629 l 18.299172949068556 21.101684603922564 a48.9310011231847,48.9310011231847 0 0,0 -0.6410765559350184,0.546339348826686 l -17.933230916556493 -21.4135483429722" fill="#ceff1d" stroke="none" /><path d="M 112.34349029814194 116.9893568818739 l 20.27185813691635 27.901819034008103 a55.488545021931536,55.488545021931536 0 0,0 -0.7775601151133936,0.5547684966319003 l -19.78857069395407 -28.246631792484223" fill="#7dff26" stroke="none" /><path d="M 112.04921762599082 117.19931262002967 l 15.266591584450936 21.791861467992526 a47.60740582707389,47.60740582707389 0 0,0 -0.6752160984075423,0.46441978943380835 l -14.88921860142051 -22.05142204679143" fill="#dfff1b" stroke="none" /><path d="M 111.45004920935366 117.60387380957326 l 15.292693840122494 23.511746338175875 a49.047614885377456,49.047614885377456 0 0,0 -0.711700039131827,0.4542406378958328 l -14.885711998943737 -23.771501404895517" fill="#cdff1d" stroke="none" /><path d="M 111.1453310114006 117.79835938074945 l 33.4359930342018 53.39507814224836 a84.0,84.0 0 0,0 -1.2320832002707651,0.7568461326864875 l -32.51193063399873 -53.96271274176323" fill="#4dd2ff" stroke="none" /><line stroke="#e1ed5e" stroke-width="0.3" x1="143.8653032363475" x2="146.44561519142675" y1="172.8068346515853" y2="177.08958963109032" /><path d="M 144.38136562736335 173.6633856474863 a86.0,86.0 0 0,1 -40.68145358897372,12.25698825130547" fill="none" id="id42" stroke="none" /><text fill="#e1ed5e" style="font-size:6.75px; font-family:Arial;" text-anchor="middle"><textPath startOffset="21.466115282336833" xlink:href="#id42">June</textPath></text><path d="M 110.8373102113329 117.98757091392108 l 14.23480050713454 23.626663680794465 a48.583487490948094,48.583487490948094 0 0,0 -0.7200353449844639,0.4254095734659189 l -13.825997291121695 -23.868191826554135" fill="#d3ff1c" stroke="none" /><path d="M 110.21172684928248 118.3499491758327 l 13.733683312835744 24.67872422627763 a49.24275990008635,49.24275990008635 0 0,0 -0.7442156510912699,0.40580571113614533 l -13.306844849875826 -24.911470589173547" fill="#caff1d" stroke="none" /><path d="M 109.89434966115114 118.52300852407294 l 13.396874592552836 25.080013418984183 a49.433841139476996,49.433841139476996 0 0,0 -0.7540051923825938,0.39445988016841543 l -12.963178497643746 -25.306902718097316" fill="#c8ff1d" stroke="none" /><path d="M 109.2508944713604 118.85261126421891 l 16.048675399511325 32.7059658446333 a57.431307743604265,57.431307743604265 0 0,0 -0.8912445549438461,0.4278515472154566 l -15.483318176567247 -32.97737166834832" fill="#67ff28" stroke="none" /><path d="M 108.59647513512805 119.15986991738527 l 11.588367722975555 25.82821617429486 a49.308779861184554,49.308779861184554 0 0,0 -0.777386550947158,0.3407834186504011 l -11.142060497370643 -26.023864146239713" fill="#c9ff1d" stroke="none" /><path d="M 107.93186726928326 119.44442032107085 l 10.868257240975604 26.6427758781883 a49.77423364663933,49.77423364663933 0 0,0 -0.7961007637178074,0.3167849235306175 l -10.40803540121593 -26.825907646124985" fill="#c3ff1e" stroke="none" /><path d="M 107.2578585660854 119.70592522655815 l 10.878868506008269 29.537385907560363 a52.47708605038218,52.47708605038218 0 0,0 -0.8503298046712029,0.30489801466974936 l -10.36881914070733 -29.720271463270073" fill="#a2ff22" stroke="none" /><path d="M 106.57524785965236 119.94407469862006 l 9.939006905792935 30.147045463578177 a52.74316002631826,52.74316002631826 0 0,0 -0.8646830566435301,0.2768442089463151 l -9.418602504058464 -30.3136625191842" fill="#9eff22" stroke="none" /><path d="M 106.2309692047433 120.05430185196036 l 10.106365913210471 32.52722104541926 a55.06110304892177,55.06110304892177 0 0,0 -0.9075250333407765,0.2734298480042102 l -9.544965905429448 -32.696366262529196" fill="#82ff25" stroke="none" /><path d="M 105.18746579009965 120.34920634021253 l 7.130688457707476 27.9720111216143 a49.866591833269766,49.866591833269766 0 0,0 -0.8335953935295412,0.20487746645439933 l -6.6481397794347235 -28.09060984638273" fill="#c2ff1e" stroke="none" /><path d="M 104.83641907484287 120.43548508189849 l 6.445738464182668 27.235396723949908 a48.98775409102319,48.98775409102319 0 0,0 -0.8222474401706221,0.18714084037500162 l -5.9759708746191835 -27.342314297902593" fill="#cdff1d" stroke="none" /><path d="M 104.48393922423573 120.51570834832081 l 5.862592656100244 26.82356630693641 a48.4567605895884,48.4567605895884 0 0,0 -0.8164007451461325,0.17108471386113439 l -5.4000004495247325 -26.920507001524086" fill="#d4ff1c" stroke="none" /><path d="M 103.7750983002368 120.6578951692458 l 5.160487176425644 28.238947607311562 a49.70659836808501,49.70659836808501 0 0,0 -0.8430026730199619,0.1465668203732028 l -4.673635531933632 -28.323593006205773" fill="#c4ff1e" stroke="none" /><path d="M 103.41894727170886 120.7198165907248 l 4.921431898982343 29.825311186998597 a51.2286235104681,51.2286235104681 0 0,0 -0.8712870035543215,0.1360771110329411 l -4.407309031819505 -29.905606605378644" fill="#b1ff20" stroke="none" /><path d="M 103.06178313531738 120.77559828337769 l 4.105112428100095 27.85506449837709 a49.15593305603793,49.15593305603793 0 0,0 -0.838158771471493,0.11616116840582964 l -3.625025065441772 -27.92160023227552" fill="#cbff1d" stroke="none" /><path d="M 102.70371172650421 120.8252237178851 l 3.5233598439205664 27.138528219918303 a48.366289089554215,48.366289089554215 0 0,0 -0.8265397525242967,0.10008245332873365 l -3.0556926683448893 -27.195156201972388" fill="#d5ff1c" stroke="none" /><path d="M 101.98527174616119 120.90594882070398 l 2.6422181150553836 27.823937349280055 a48.94911100883512,48.94911100883512 0 0,0 -0.8394904986348584,0.07243477261401236 l -2.1628832986789837 -27.865296374172733" fill="#ceff1d" stroke="none" /><path d="M 101.62511606390274 120.93702456842531 l 2.1405703019578177 27.57782905357759 a48.660779029629154,48.660779029629154 0 0,0 -0.8356613813139038,0.057632101504481524 l -1.6655461598649837 -27.61058949959836" fill="#d2ff1c" stroke="none" /><path d="M 101.26447882468166 120.96189622390904 l 1.701042702093544 28.19903338650173 a49.25029256852723,49.25029256852723 0 0,0 -0.846663964350727,0.043762856016514765 l -1.2153906693293375 -28.224136049280446" fill="#caff1d" stroke="none" /><line stroke="#e1ed5e" stroke-width="0.3" x1="102.19456741930631" x2="102.32365962044197" y1="184.97166512339345" y2="189.96999836594603" /><path d="M 102.22038585953345 185.97133177190398 a86.0,86.0 0 0,1 -42.740103519485714,-10.115201625700543" fill="none" id="id43" stroke="none" /><text fill="#e1ed5e" style="font-size:6.75px; font-family:Arial;" text-anchor="middle"><textPath startOffset="22.20632615414155" xlink:href="#id43">July</textPath></text><path d="M 100.18074693466247 120.99922214144158 l 0.27498140649977276 31.947405640035985 a52.948589044008244,52.948589044008244 0 0,0 -0.9114566823244344,0.0 l 0.2749814064997508 -31.947405640035985" fill="#9cff22" stroke="none" /><path d="M 99.81925306533755 120.99922214144158 l -0.2816917299736851 32.72701262774637 a53.7282249101201,53.7282249101201 0 0,0 -0.9247402987157282,-0.015920242869221057 l 0.8449917185820811 -32.71731490759799" fill="#92ff23" stroke="none" /><path d="M 98.73552117531835 120.96189622390904 l -1.941922536015235 32.19221854906906 a53.250736398521354,53.250736398521354 0 0,0 -0.9144856457738897,-0.06306828428372081 l 2.4957709425680545 -32.15402192026906" fill="#98ff23" stroke="none" /><path d="M 98.37488393609728 120.93702456842531 l -2.638583844819693 33.9939380404445 a55.09618671059453,55.09618671059453 0 0,0 -0.9449145102187417,-0.08153119993457586 l 3.2233426727799763 -33.94348258823126" fill="#82ff25" stroke="none" /><path d="M 97.65516085044442 120.86867818915974 l -3.4956281395995674 31.110508679497514 a52.306279983215035,52.306279983215035 0 0,0 -0.8938709280081862,-0.10823532100069008 l 4.030626490659143 -31.045727829771476" fill="#a4ff21" stroke="none" /><path d="M 97.2962882734958 120.8252237178851 l -3.697581012925702 28.480459308708944 a49.719482373158726,49.719482373158726 0 0,0 -0.8477678618484984,-0.11749290077384635 l 4.1872774659610315 -28.412591842442495" fill="#c4ff1e" stroke="none" /><path d="M 96.93821686468263 120.77559828337769 l -4.530474111157373 30.741337974249454 a52.07338179405162,52.07338179405162 0 0,0 -0.8856544970217339,-0.1383210180301241 l 5.058964471787624 -30.658798648872224" fill="#a7ff21" stroke="none" /><path d="M 95.86986931433489 120.58985236759428 l -2.261733070828216 11.275369611157801 a32.499973754400436,32.499973754400436 0 0,0 -0.547560391315605,-0.11474660383015103 l 2.455484923573208 -11.23476702660111" fill="#ff4706" stroke="none" /><path d="M 95.16358092515715 120.4354850818985 l -6.898975293834528 29.150473628491923 a50.955733555871106,50.955733555871106 0 0,0 -0.8518020422994627,-0.20935221775648188 l 7.399730620877201 -29.02740015242141" fill="#b4ff20" stroke="none" /><path d="M 94.81253420990036 120.34920634021253 l -6.5078689516439505 25.528836910078525 a47.34528178390125,47.34528178390125 0 0,0 -0.7879823081550756,-0.20811328944350665 l 6.946341702610516 -25.41303227133144" fill="#e3ff1b" stroke="none" /><path d="M 94.11515582081647 120.15858648285463 l -8.67723050774221 29.723930880061882 a51.96459908100198,51.96459908100198 0 0,0 -0.8564880088149613,-0.25805281117767825 l 9.187593490997417 -29.57016269977848" fill="#a8ff21" stroke="none" /><path d="M 93.76903079525671 120.05430185196036 l -8.48861246751345 27.320500412398072 a49.60884975680546,49.60884975680546 0 0,0 -0.8132984793266007,-0.26039248996090353 l 8.95763229193099 -27.170335075777462" fill="#c5ff1e" stroke="none" /><path d="M 93.08242187328487 119.8279376855182 l -9.16145784977499 26.259597221216996 a48.81184560854873,48.81184560854873 0 0,0 -0.7909388700071862,-0.2836025385274747 l 9.612116280411904 -26.098007141649564" fill="#d0ff1d" stroke="none" /><path d="M 92.7421414339146 119.70592522655815 l -9.479954717353374 25.73917321622339 a48.42944730208434,48.42944730208434 0 0,0 -0.7797827773788233,-0.2948471230447654 l 9.921607715492481 -25.57217784307199" fill="#d5ff1c" stroke="none" /><path d="M 92.40401165467489 119.57807347666478 l -10.971362630498605 28.277840085317077 a51.33161779168178,51.33161779168178 0 0,0 -0.8210099309000327,-0.326696795219046 l 11.456493637440497 -28.084796445691964" fill="#b0ff20" stroke="none" /><path d="M 91.7346041902142 119.30500536409082 l -11.12695086378094 25.988573451854197 a49.27039061610957,49.27039061610957 0 0,0 -0.7767813183110006,-0.34051810244885206 l 11.572652856749684 -25.793190796110892" fill="#caff1d" stroke="none" /><path d="M 91.07499286063937 119.00905698771935 l -11.677136314577597 24.87071956259232 a48.47559287932363,48.47559287932363 0 0,0 -0.7522657919309162,-0.36113329524373555 l 12.103514774508756 -24.666031990849024" fill="#d4ff1c" stroke="none" /><path d="M 90.7491055286396 118.85261126421891 l -12.398382286077805 25.266949295361457 a49.144957097250916,49.144957097250916 0 0,0 -0.7562381353845248,-0.3791935003279659 l 12.83147432914509 -25.049787954124188" fill="#cbff1d" stroke="none" /><path d="M 90.42595943632237 118.69057910512821 l -11.998956655572801 23.42453502869235 a47.31888679508975,47.31888679508975 0 0,0 -0.7217461867993392,-0.37758349310201705 l 12.400393744898636 -23.214522116645618" fill="#e3ff1b" stroke="none" /><line stroke="#e1ed5e" stroke-width="0.3" x1="58.666819895761336" x2="56.23545636021788" y1="174.27360380694188" y2="178.64263932499728" /><path d="M 58.180547188652646 175.14741091055294 a86.0,86.0 0 0,1 -31.652253787137756,-30.449443065178592" fill="none" id="id44" stroke="none" /><text fill="#e1ed5e" style="font-size:6.75px; font-family:Arial;" text-anchor="middle"><textPath startOffset="22.20632615414155" xlink:href="#id44">August</textPath></text><path d="M 89.7882731507175 118.34994917583269 l -14.241932320608242 25.592021614559016 a50.28795326657091,50.28795326657091 0 0,0 -0.7527657199216795,-0.42744002175001644 l 14.680346807451128 -25.343078427014365" fill="#bdff1f" stroke="none" /><path d="M 89.4739219176387 118.17145234162733 l -14.162211228757688 24.448607010304407 a49.25424944379617,49.25424944379617 0 0,0 -0.7299764245377052,-0.43128293849166827 l 14.580955524323775 -24.201205499518988" fill="#caff1d" stroke="none" /><path d="M 88.8546689885994 117.79835938074946 l -16.110704296618533 25.727733402883192 a51.35574177948736,51.35574177948736 0 0,0 -0.7451918614089958,-0.47561670348384866 l 16.55117796007445 -25.44660227057554" fill="#afff20" stroke="none" /><path d="M 88.54995079064634 117.60387380957326 l -15.339473064207851 23.583667038484794 a49.133410473486364,49.133410473486364 0 0,0 -0.7050066529931617,-0.4672399667660842 l 15.743154415940975 -23.316129050627392" fill="#ccff1d" stroke="none" /><path d="M 88.24862548938628 117.40417183066458 l -14.984978513009153 22.193245622771634 a47.778531182796755,47.778531182796755 0 0,0 -0.6776431702679319,-0.4660891515906021 l 15.364778567899975 -21.93201568181593" fill="#ddff1b" stroke="none" /><path d="M 87.65650970185807 116.9893568818739 l -18.33436625903964 25.235090242238872 a52.19228695774888,52.19228695774888 0 0,0 -0.7222791913404272,-0.534324878496916 l 18.766030420798632 -24.91575541500219" fill="#a5ff21" stroke="none" /><path d="M 86.79598089348748 116.32954008644616 l -18.79575758092537 23.24489796606415 a50.893239779148175,50.893239779148175 0 0,0 -0.67646778464276,-0.5566869330686778 l 19.193095494112818 -22.91791591413829" fill="#b5ff1f" stroke="none" /><path d="M 86.51685102203217 116.09983520530335 l -19.29125801438723 23.03512891848451 a51.04612787147224,51.04612787147224 0 0,0 -0.6687881935478164,-0.5699558075914593 l 19.6849116845121 -22.6996487206701" fill="#b3ff20" stroke="none" /><path d="M 86.24171649860922 115.8653595955263 l -18.316879129183967 21.122102479056924 a48.95802700780078,48.95802700780078 0 0,0 -0.6319260765271529,-0.5576012897501534 l 18.677747558617707 -20.803678047534483" fill="#ceff1d" stroke="none" /><path d="M 85.70375840098266 115.38237550388516 l -21.277976343516176 22.894536288561937 a52.25559260586037,52.25559260586037 0 0,0 -0.6536034109634148,-0.618022820933865 l 21.66891558887041 -22.524878830882145" fill="#a4ff21" stroke="none" /><path d="M 85.18274418774928 114.88116024355367 l -18.86691723323673 18.94828720022027 a47.73944939051357,47.73944939051357 0 0,0 -0.5773276536860872,-0.5848298651351705 l 19.19028551197835 -18.620716841104436" fill="#deff1b" stroke="none" /><path d="M 84.9287848128048 114.62390073753433 l -19.198230476232442 18.62842599840675 a47.75051978180343,47.75051978180343 0 0,0 -0.5673067549433071,-0.5948188644955393 l 19.516043782554707 -18.29520001732871" fill="#ddff1b" stroke="none" /><path d="M 84.43433777217949 114.09645910891817 l -20.776896645769206 18.815818414319637 a49.03059858136507,49.03059858136507 0 0,0 -0.5611462126417064,-0.6304537185731196 l 21.09770170805925 -18.45539052600565" fill="#cdff1d" stroke="none" /><path d="M 83.95833913139862 113.55231037782056 l -21.421478370247524 18.097285935871756 a49.04267272946151,49.04267272946151 0 0,0 -0.5392452051973733,-0.6495555876549358 l 21.729819575338432 -17.72586909110306" fill="#cdff1d" stroke="none" /><path d="M 83.72743513129214 113.27417163493432 l -21.711947954625945 17.711290506679152 a49.0196091228334,49.0196091228334 0 0,0 -0.5277359800354648,-0.6584317782106918 l 22.01360184671627 -17.3349308948902" fill="#cdff1d" stroke="none" /><path d="M 83.28015986056508 112.70617746262583 l -22.432169678071347 17.04724007073801 a49.17464517070551,49.17464517070551 0 0,0 -0.5063553801158102,-0.6783457790787235 l 22.722286324882244 -16.65858141214998" fill="#cbff1d" stroke="none" /><path d="M 83.06392112726016 112.41649034213515 l -23.91412923520189 17.53236725694465 a50.652478458137736,50.652478458137736 0 0,0 -0.509467953172282,-0.7076064276298933 l 24.212376980749777 -17.118127223863617" fill="#b8ff1f" stroke="none" /><path d="M 82.85270091963577 112.12312394758628 l -22.583214012150716 15.966310572939225 a48.657270805886675,48.657270805886675 0 0,0 -0.47762693637580317,-0.6880572249495632 l 22.854701855688653 -15.575212085802649" fill="#d2ff1c" stroke="none" /><path d="M 82.6465618267979 111.8261652097733 l -23.211695420278936 15.818499025919802 a49.08928115343687,49.08928115343687 0 0,0 -0.4698472890219224,-0.7023579473704611 l 23.480545814711586 -15.41660416434352" fill="#ccff1d" stroke="none" /><path d="M 82.44556493220864 111.52570212397912 l -23.924718997310023 15.708234614102759 a49.620636152817134,49.620636152817134 0 0,0 -0.4626418683266066,-0.7180304535713339 l 24.191565729013675 -15.294082560609978" fill="#c5ff1e" stroke="none" /><path d="M 82.05923443525364 110.91462005526583 l -26.07956073551353 15.866017289456924 a51.526611223433974,51.526611223433974 0 0,0 -0.454462562335338,-0.7617053951117738 l 26.3488041735471 -15.41474980045904" fill="#adff20" stroke="none" /><line stroke="#e1ed5e" stroke-width="0.3" x1="26.63291911575756" x2="22.317208475507996" y1="142.92168965132927" y2="145.44649492493687" /><path d="M 25.769776987707644 143.4266507060508 a86.0,86.0 0 0,1 -11.730757126820373,-40.83630448921669" fill="none" id="id45" stroke="none" /><text fill="#e1ed5e" style="font-size:6.75px; font-family:Arial;" text-anchor="middle"><textPath startOffset="21.46611528233685" xlink:href="#id45">September</textPath></text><path d="M 81.69416730710424 110.29060199501025 l -26.536686075036005 14.917566397878433 a51.442232097533875,51.442232097533875 0 0,0 -0.4272732775371572,-0.7756251086429069 l 26.78953576202468 -14.458570770837703" fill="#aeff20" stroke="none" /><path d="M 81.51974371655577 109.97397251340807 l -23.705361478698194 12.794012170748566 a47.93753719739447,47.93753719739447 0 0,0 -0.3856631748274295,-0.7295293858113132 l 23.922077161750508 -12.384067769851127" fill="#dbff1b" stroke="none" /><path d="M 81.18737489456691 109.33194174019688 l -26.60110477440477 13.19539184927077 a50.694059023223176,50.694059023223176 0 0,0 -0.3810424821808095,-0.7850603743476136 l 26.8243005132003 -12.735542518957873" fill="#b8ff1f" stroke="none" /><path d="M 80.87730276802145 108.67885076344099 l -25.09977348686275 11.391551392884555 a48.563854451592,48.563854451592 0 0,0 -0.33892694427111086,-0.7641907852311988 l 25.29214151586514 -10.95781227116066" fill="#d3ff1c" stroke="none" /><path d="M 80.58989483394504 108.01547362559985 l -28.159916130992062 11.628739932940121 a51.466513895299265,51.466513895299265 0 0,0 -0.3310948324067027,-0.8217502211438517 l 28.355913577656153 -11.142290343953464" fill="#aeff20" stroke="none" /><path d="M 80.45479744820244 107.68017299344265 l -23.895322821273673 9.389527302937143 a46.673910409314054,46.673910409314054 0 0,0 -0.28739064807925563,-0.750286295139285 l 24.053407748946437 -8.9768174409647" fill="#ecff1a" stroke="none" /><path d="M 80.32549172779594 107.34259656027581 l -29.1554865003013 10.880931402627526 a52.11972141999245,52.11972141999245 0 0,0 -0.30645338659692395,-0.8432281034223762 l 29.338464147903448 -10.377455502199032" fill="#a6ff21" stroke="none" /><path d="M 80.20201598880116 107.00284435728193 l -40.372340330394074 14.280303262849543 a63.82350902287335,63.82350902287335 0 0,0 -0.35743951726035694,-1.0388865508878413 l 40.612170678597664 -13.583244008872404" fill="#31ff42" stroke="none" /><path d="M 79.97269907076064 106.31721596034903 l -25.90065439848452 8.169849143810964 a48.158614347981086,48.158614347981086 0 0,0 -0.24256628910564465,-0.79272066758881 l 26.037447460096292 -7.722801503670106" fill="#d8ff1c" stroke="none" /><path d="M 79.67330655649465 105.27499134158121 l -28.450102596581104 7.3831016973404076 a50.39249102116494,50.39249102116494 0 0,0 -0.2106614550545778,-0.8414877954542591 l 28.57297536593074 -6.892286062488757" fill="#bcff1f" stroke="none" /><path d="M 79.58551787078972 104.9243191809786 l -30.950416351944188 7.465765133619306 a52.838120569359305,52.838120569359305 0 0,0 -0.2056646701253582,-0.8859980161555433 l 31.074341588000102 -6.931898460115188" fill="#9dff22" stroke="none" /><path d="M 79.4281124754447 104.21870165774334 l -27.013906825216306 5.539774285156548 a48.57608132226096,48.57608132226096 0 0,0 -0.16092577301757963,-0.8205570496144183 l 27.105262531209554 -5.073953508474174" fill="#d3ff1c" stroke="none" /><path d="M 79.29508885075956 103.50808413554451 l -28.510146933725277 4.830544475140802 a49.91647693113596,49.91647693113596 0 0,0 -0.13624404219799116,-0.8483917808219988 l 28.58907273028456 -4.3390734646255895" fill="#c2ff1e" stroke="none" /><path d="M 79.23777060512086 103.15116336523772 l -31.08705092845908 4.718201217986775 a52.4430621626142,52.4430621626142 0 0,0 -0.12777614491169736,-0.8936660599097531 l 31.163661124387378 -4.182389686096621" fill="#a2ff22" stroke="none" /><path d="M 79.18660465613746 102.79330883721812 l -27.012862684637085 3.625322385364995 a48.25504930864898,48.25504930864898 0 0,0 -0.10340020905276805,-0.8242014025237164 l 27.0712644029367 -3.15980322855387" fill="#d7ff1c" stroke="none" /><path d="M 79.1416061653843 102.43462659150553 l -30.77144799037361 3.591694841439039 a51.98035318162606,51.98035318162606 0 0,0 -0.09608369893681899,-0.889615720152594 l 30.82871399081148 -3.061482799401663" fill="#a8ff21" stroke="none" /><path d="M 79.04373962182676 101.35467743843564 l -30.799451903508665 1.9909717600819334 a51.86373610089983,51.86373610089983 0 0,0 -0.04992168396215464,-0.8913852026347419 l 30.82915993835835 -1.4605148411117541" fill="#a9ff21" stroke="none" /><path d="M 79.0235259727143 100.99374915477108 l -33.54830514650665 1.5893328802532374 a54.58593094150255,54.58593094150255 0 0,0 -0.03638507664346081,-0.9389371547139718 l 33.57069235600131 -1.0116184785252689" fill="#88ff25" stroke="none" /><path d="M 79.0095281055655 100.63252640178507 l -31.503726316800687 0.9493325709971884 a52.51802665419008,52.51802665419008 0 0,0 -0.019451519963018957,-0.9038356994014172 l 31.515399899448713 -0.4069070558056423" fill="#a1ff22" stroke="none" /><line stroke="#e1ed5e" stroke-width="0.3" x1="15.007084014347285" x2="10.007500721073583" y1="101.09737516637583" y2="101.16192664675087" /><path d="M 14.007167355692545 101.11028546245083 a86.0,86.0 0 0,1 10.666146001902534,-42.60595125391555" fill="none" id="id46" stroke="none" /><text fill="#e1ed5e" style="font-size:6.75px; font-family:Arial;" text-anchor="middle"><textPath startOffset="22.20632615414155" xlink:href="#id46">October</textPath></text><path d="M 79.00019446554 99.90962569577889 l -30.936961840366315 -0.1331396329575749 a51.93724832744738,51.93724832744738 0 0,0 0.011542417536649372,-0.8939729584038868 l 30.930086415711948 0.6656488494219336" fill="#a8ff21" stroke="none" /><path d="M 79.00486145842228 99.54816195383935 l -31.216537523443698 -0.6718135864910295 a52.223765763398276,52.223765763398276 0 0,0 0.027077538967081094,-0.8985716944857297 l 31.200348290020973 1.2090554284017536" fill="#a5ff21" stroke="none" /><path d="M 79.01574976396665 99.18683210126434 l -31.216678293826376 -1.20968823799616 a52.24010802371524,52.24010802371524 0 0,0 0.0425542739894293,-0.8982534664846571 l 31.19123041160345 1.7468528111038262" fill="#a5ff21" stroke="none" /><path d="M 79.05617556472873 98.46500227214037 l -6.973766644981549 -0.5111156268404484 a27.992471694805616,27.992471694805616 0 0,0 0.039356770283678726,-0.48025228450445984 l 6.963935390878373 0.6310818285526867" fill="#ff0000" stroke="none" /><path d="M 79.08570108090925 98.10471618934814 l -30.84620324617296 -2.7953272475790887 a51.97260255653808,51.97260255653808 0 0,0 0.08841003567117574,-0.8902769939314394 l 30.793516084819554 3.3258797722149582" fill="#a8ff21" stroke="none" /><path d="M 79.16333360222342 97.38593545837743 l -33.62659394241801 -4.218625244669404 a54.89018470181633,54.89018470181633 0 0,0 0.1256828425198957,-0.9364831609211345 l 33.54899510084028 4.7968267476551985" fill="#84ff25" stroke="none" /><path d="M 79.3925641242962 95.95851677861259 l -27.167949957862064 -5.32811624776886 a48.68548947847294,48.68548947847294 0 0,0 0.16836069164999184,-0.8209865245679906 l 27.072209970297077 5.7949784285002535" fill="#d1ff1c" stroke="none" /><path d="M 79.46518482838121 95.60439243477599 l -26.951692162466497 -5.769180826553659 a48.56224152404576,48.56224152404576 0 0,0 0.18200576131929172,-0.8158961402509907 l 26.848392014145166 6.232255136354609" fill="#d3ff1c" stroke="none" /><path d="M 79.54389044137918 95.25157060432595 l -26.98900582422581 -6.264895494840725 a48.70659399748317,48.70659399748317 0 0,0 0.1966057896190503,-0.8150579260135886 l 26.877167234345947 6.72853865251371" fill="#d1ff1c" stroke="none" /><path d="M 79.71946130924805 94.55025226153421 l -30.690550568098914 -8.247106307242055 a52.779311770647084,52.779311770647084 0 0,0 0.24332074380005866,-0.8753541763354254 l 30.544043053732494 8.774171786996423" fill="#9eff22" stroke="none" /><path d="M 80.02781315780177 93.51064311812611 l -14.495895372071146 -4.710001920917346 a36.24188639024313,36.24188639024313 0 0,0 0.19788537011053564,-0.5916520693051798 l 14.41267270818884 4.958827093144849" fill="#ff800b" stroke="none" /><path d="M 80.14247586403 93.16781622104843 l -26.253877954091497 -9.032914570029615 a48.764359406580674,48.764359406580674 0 0,0 0.27992349013078494,-0.79138140150231 l 26.094501383150902 9.483493597958535" fill="#d0ff1d" stroke="none" /><path d="M 80.2630227832202 92.82701384747504 l -28.21897849708606 -10.255589788385176 a51.024787581707145,51.024787581707145 0 0,0 0.30710947728604365,-0.8229007139007997 l 28.038264431298387 10.739813639315317" fill="#b4ff20" stroke="none" /><path d="M 80.38941819471856 92.48833698450439 l -26.093354811258877 -9.99483290358835 a48.94208027468426,48.94208027468426 0 0,0 0.30811708069149113,-0.7841243624232832 l 25.917444180685695 10.442506270907398" fill="#ceff1d" stroke="none" /><path d="M 80.65960295795068 91.81776055985345 l -25.47205485451558 -10.776327466238477 a48.65781647511344,48.65781647511344 0 0,0 0.3329800126782699,-0.7685637784449234 l 25.282784131994628 11.21319038927" fill="#d2ff1c" stroke="none" /><path d="M 80.803312248108 91.48605970444005 l -26.182870850380674 -11.612388661399523 a49.64245618642218,49.64245618642218 0 0,0 0.3531651397380859,-0.7781525715996171 l 25.979103393679235 12.06136324184121" fill="#c5ff1e" stroke="none" /><path d="M 81.10775173730289 90.83032412892265 l -27.56122664259164 -13.377312822046644 a51.63615041716562,51.63615041716562 0 0,0 0.39499193019757683,-0.7962796285440207 l 27.32687469944065 13.849752039089626" fill="#acff21" stroke="none" /><path d="M 81.26839172434947 90.50648371742162 l -27.39344421955675 -13.88349067027631 a51.71078148471016,51.71078148471016 0 0,0 0.40923067079416486,-0.7905034004679595 l 27.15040411560247 14.352966793004605" fill="#abff21" stroke="none" /><path d="M 81.43458229118936 90.18545643968196 l -25.498449931035218 -13.479666953573002 a49.84219773291831,49.84219773291831 0 0,0 0.4075000794235009,-0.755035758635449 l 25.262641752393247 13.916583695540924" fill="#c2ff1e" stroke="none" /><path d="M 81.6062741919709 89.86733742301443 l -26.507304066016456 -14.60223832461716 a51.26322079583022,51.26322079583022 0 0,0 0.43242323079620404,-0.7692326765057228 l 26.252023193927823 15.056354511057668" fill="#b1ff20" stroke="none" /><line stroke="#e1ed5e" stroke-width="0.3" x1="26.266209847984243" x2="21.928928074336255" y1="57.711370442889674" y2="55.22380399835377" /><path d="M 25.398753493254645 57.213857153982495 a86.0,86.0 0 0,1 29.58750427330803,-30.492523968695096" fill="none" id="id47" stroke="none" /><text fill="#e1ed5e" style="font-size:6.75px; font-family:Arial;" text-anchor="middle"><textPath startOffset="21.46611528233685" xlink:href="#id47">November</textPath></text><path d="M 81.78341655067845 89.55222093294921 l -26.98613381315653 -15.477389859525442 a52.10950039851703,52.10950039851703 0 0,0 0.452956436473049,-0.77424937791859 l 26.71571770221316 15.939618649797923" fill="#a6ff21" stroke="none" /><path d="M 82.15384107792192 88.93136811851018 l -26.320980673925735 -16.324927235690406 a51.97252448360899,51.97252448360899 0 0,0 0.4780789277935384,-0.7562060528665359 l 26.036074149886236 16.775580936271158" fill="#a8ff21" stroke="none" /><path d="M 82.34701348167596 88.62581576622439 l -25.80359577748176 -16.62579031385426 a51.69596811647948,51.69596811647948 0 0,0 0.4884120958447241,-0.7438851299993604 l 25.513587046279113 17.06749350783129" fill="#abff21" stroke="none" /><path d="M 82.54541684631803 88.32363383020206 l -23.35220757458847 -15.621623507892577 a49.09556405607492,49.09556405607492 0 0,0 0.475935985048097,-0.6983773306421249 l 23.07984712387163 16.02127886180512" fill="#ccff1d" stroke="none" /><path d="M 82.95767976084542 87.72973835380427 l -25.145754978781792 -18.10463531672772 a51.985267683281904,51.985267683281904 0 0,0 0.5291045382097198,-0.7216979954984244 l 24.83038782805844 18.534795755897644" fill="#a8ff21" stroke="none" /><path d="M 83.39014120810768 87.1503855733568 l -24.64934175733551 -19.069068642950956 a52.164393592359524,52.164393592359524 0 0,0 0.5555406554867244,-0.705480216431286 l 24.317447021254814 19.49054125333529" fill="#a5ff21" stroke="none" /><path d="M 83.6137871275137 86.86637796730984 l -23.831286669828867 -19.10088158318483 a51.541347409608704,51.541347409608704 0 0,0 0.5608226477861956,-0.6875022537695649 l 23.498965529966277 19.508268006562478" fill="#adff20" stroke="none" /><path d="M 84.31358615837235 86.03803664274999 l -20.67897492194695 -18.405678508846304 a48.68373177867315,48.68373177867315 0 0,0 0.5625436721256087,-0.6211747731148576 l 20.359087609205297 18.75890606923072" fill="#d1ff1c" stroke="none" /><path d="M 84.5562425177563 85.77008943001954 l -23.038809687123322 -21.228007618191057 a52.3275447368201,52.3275447368201 0 0,0 0.6160513819045147,-0.6571606612753087 l 22.66999098324835 21.621437696344415" fill="#a3ff21" stroke="none" /><path d="M 84.80347519578584 85.50635884689758 l -24.350229158490812 -23.22395994912648 a54.64945728818887,54.64945728818887 0 0,0 0.6551057794603433,-0.6751440911576398 l 23.94685911532735 23.639668235834247" fill="#87ff25" stroke="none" /><path d="M 85.31137513191541 84.99185889309783 l -21.469239843355233 -21.936252298682245 a51.69409429129574,51.69409429129574 0 0,0 0.6412941794838901,-0.6169244925667832 l 21.088462420258914 22.30255987801134" fill="#abff21" stroke="none" /><path d="M 85.83668400450813 84.49514656593479 l -20.907053244011717 -22.887351831292793 a51.998963679409066,51.998963679409066 0 0,0 0.6660547564836762,-0.59799053674036 l 20.50998749993207 23.243841376802433" fill="#a7ff21" stroke="none" /><path d="M 86.10567301691215 84.25364557470407 l -20.383171305625122 -23.100121371878483 a51.807292641028624,51.807292641028624 0 0,0 0.6737568045517283,-0.5842752615974547 l 19.982520702426623 23.447561626895617" fill="#aaff21" stroke="none" /><path d="M 86.37877921826538 84.01681056812374 l -20.122411417489715 -23.611709894840313 a52.02296383991737,52.02296383991737 0 0,0 0.686560587299135,-0.5749747474375415 l 19.71299329323147 23.95458579967167" fill="#a7ff21" stroke="none" /><path d="M 86.93701828274178 83.55741782278169 l -19.44604850506431 -24.477049534890085 a52.26139402513549,52.26139402513549 0 0,0 0.7091807580547295,-0.5535268305005014 l 19.021835191850155 24.80815475461381" fill="#a4ff21" stroke="none" /><path d="M 87.22198572758235 83.33499621200491 l -21.0908703760211 -27.506577095253444 a55.661745436651714,55.661745436651714 0 0,0 0.7653591944454556,-0.5764526776961887 l 20.614265027817254 27.86554636245549" fill="#7bff26" stroke="none" /><path d="M 87.80319425747018 82.90503203632743 l -17.856864901516214 -25.028072092565125 a51.74527633282288,51.74527633282288 0 0,0 0.7295316664660698,-0.511083553656938 l 17.423402095466486 25.331740488986004" fill="#abff21" stroke="none" /><path d="M 88.09926311788651 82.69761687909137 l -15.693488751457185 -22.816633757317348 a48.692677104383876,48.692677104383876 0 0,0 0.6946713084405516,-0.46904516840497 l 15.298412748610094 23.083390838020986" fill="#d1ff1c" stroke="none" /><path d="M 88.39885842347998 82.49532879139004 l -17.168213765450258 -25.90468663976825 a52.077328614293464,52.077328614293464 0 0,0 0.751483227580876,-0.48878559508450825 l 16.719763512085095 26.196371159012294" fill="#a7ff21" stroke="none" /><path d="M 88.70189139769569 82.29822771554957 l -16.664533686449055 -26.10983757793841 a51.97467193261488,51.97467193261488 0 0,0 0.7582878115185323,-0.4748397580074495 l 16.21262672255828 26.392821677268792" fill="#a8ff21" stroke="none" /><line stroke="#e1ed5e" stroke-width="0.3" x1="56.762969772571076" x2="54.21961505331055" y1="26.818313649435495" y2="22.513508569990535" /><path d="M 56.25429882871897 25.957352633546506 a86.0,86.0 0 0,1 42.265352541879196,-11.944610805530505" fill="none" id="id48" stroke="none" /><text fill="#e1ed5e" style="font-size:6.75px; font-family:Arial;" text-anchor="middle"><textPath startOffset="22.20632615414155" xlink:href="#id48">December</textPath></text><path d="M 89.3179101791058 81.91981866633112 l -15.790493163375892 -26.726509936610498 a52.04264820749609,52.04264820749609 0 0,0 0.7751957338315537,-0.44904340445764784 l 15.32810069707902 26.994357498458193" fill="#a7ff21" stroke="none" /><path d="M 89.94658935756843 81.56283822128135 l -14.862625194514866 -27.256881760223532 a52.045695852459716,52.045695852459716 0 0,0 0.7902394252113341,-0.4221185332235026 l 14.391240722775226 27.508679019948787" fill="#a7ff21" stroke="none" /><path d="M 90.26544431104013 81.39251694778311 l -14.738743884756728 -28.17292702507304 a52.7953516800891,52.7953516800891 0 0,0 0.8088738431967434,-0.414336599315889 l 14.25160955397122 28.422456149701436" fill="#9eff22" stroke="none" /><path d="M 90.58718382345135 81.22770947309562 l -15.485603102894235 -30.883450285167747 a55.54839221985294,55.54839221985294 0 0,0 0.858430921272228,-0.42122832494372175 l 14.951700914611582 31.1454337702463" fill="#7dff26" stroke="none" /><path d="M 91.23893434514133 80.91482961587045 l -14.884252666411491 -32.42396637232828 a56.677087503767076,56.677087503767076 0 0,0 0.8901484253317006,-0.39938365124253433 l 14.323922122613016 32.67537035408735" fill="#6fff27" stroke="none" /><path d="M 91.90106846888425 80.62456947434976 l -12.308599035746651 -29.446403463092338 a52.915392636375316,52.915392636375316 0 0,0 0.8434112124980501,-0.34404861037232204 l 11.799903953660221 29.65391295964824" fill="#9cff22" stroke="none" /><path d="M 92.57280143429618 80.3572730644239 l -11.722756246637655 -31.00319694538853 a54.14545571948938,54.14545571948938 0 0,0 0.8746235980547388,-0.32213125241573687 l 11.187350322810348 31.20039146561059" fill="#8dff24" stroke="none" /><path d="M 93.25333710446033 80.11325718540243 l -9.643841288739074 -28.426585768905575 a51.017902213168284,51.017902213168284 0 0,0 0.8340629620446512,-0.27497744512452893 l 9.153095504452013 28.588376938289336" fill="#b4ff20" stroke="none" /><path d="M 93.59665428221793 80.00007090966166 l -8.844754071368133 -27.625316833605982 a50.006685517999074,50.006685517999074 0 0,0 0.8220494906222785,-0.2554147782682171 l 8.367919208035124 27.773471746756723" fill="#c0ff1e" stroke="none" /><path d="M 93.94186890950719 79.89281104454417 l -8.321686708051905 -27.620024157201495 a49.84642445973785,49.84642445973785 0 0,0 0.8236760428114075,-0.2404536235809185 l 7.845020447517076 27.759176109701112" fill="#c2ff1e" stroke="none" /><path d="M 94.63758080256005 79.69619591428918 l -8.039705324440462 -30.440850631784883 a52.48463512398507,52.48463512398507 0 0,0 0.8754714840258593,-0.22317717446391966 l 7.514524951729602 30.57473080241767" fill="#a1ff22" stroke="none" /><path d="M 94.98787191387505 79.60689891045804 l -7.391060646300104 -30.07238528803548 a51.9673398016255,51.9673398016255 0 0,0 0.8705180568467132,-0.2060234987452258 l 6.872318902490857 30.195154698921577" fill="#a8ff21" stroke="none" /><path d="M 95.33964822691252 79.52364482259891 l -6.367393013402129 -27.9766436622759 a49.692094458109615,49.692094458109615 0 0,0 0.8356726052348529,-0.1826456639767226 l 5.884877684013754 28.082102824348492" fill="#c4ff1e" stroke="none" /><path d="M 96.04723909329186 79.375362276772 l -5.94683855428156 -31.02929665501227 a52.59402063200322,52.59402063200322 0 0,0 0.8906043017883541,-0.16275224355238946 l 5.4118391313903125 31.127064379915396" fill="#a0ff22" stroke="none" /><path d="M 96.40284397218896 79.31037775812273 l -5.576412911973301 -32.07363698473277 a53.554793355099655,53.554793355099655 0 0,0 0.9095919362395869,-0.15009046316398317 l 5.023491769594829 32.16487371083639" fill="#94ff23" stroke="none" /><path d="M 96.75951476605007 79.25152402106235 l -5.482326688996895 -35.10274400377001 a56.52827806859065,56.52827806859065 0 0,0 0.9626793200134727,-0.14187390738558361 l 4.877278388554773 35.19191239531657" fill="#71ff27" stroke="none" /><path d="M 97.47563105711357 79.15227682838746 l -3.404738930690585 -28.118336227622855 a49.32371937786081,49.32371937786081 0 0,0 0.8437486812985973,-0.09480499542719603 l 2.9202235458822696 28.17277717652065" fill="#c9ff1d" stroke="none" /><path d="M 97.83486435360386 79.11191278185805 l -2.941384255142169 -28.37692454315527 a49.52896051145793,49.52896051145793 0 0,0 0.8487727794958869,-0.08060120267658094 l 2.4524863485560453 28.42335129034703" fill="#c6ff1e" stroke="none" /><path d="M 98.19473922651362 79.07773832637324 l -2.3599920558430694 -27.351378850752827 a48.453005073052594,48.453005073052594 0 0,0 0.8315684944383213,-0.06454571967141703 l 1.888833372042414 27.387949832612705" fill="#d4ff1c" stroke="none" /><path d="M 98.91598698831166 79.02799685794201 l -1.4724312250645253 -28.48658821024901 a49.52461676469717,49.52461676469717 0 0,0 0.8517271127131312,-0.0366771611290064 l 0.98186327996207 28.507713097902208" fill="#c7ff1e" stroke="none" /><path d="M 99.27714615592234 79.0124445844662 l -0.9690981375733251 -28.137086123354116 a49.15377002664643,49.15377002664643 0 0,0 0.845850631780301,-0.021845826316444928 l 0.4846208705981451 28.14959874181292" fill="#cbff1d" stroke="none" /></svg>