<?xml version="1.0" encoding="utf-8" ?>
<svg baseProfile="full" height="200mm" version="1.1" viewBox="0,0,200,200" width="200mm" xmlns="http://www.w3.org/2000/svg" xmlns:ev="http://www.w3.org/2001/xml-events" xmlns:xlink="http://www.w3.org/1999/xlink"><defs /><rect fill="#1a1a1a" height="200" width="200" x="0" y="0" /><text alignment-baseline="middle" fill="#e1ed5e" style="dominant-baseline: central; font-size:9.0px; font-family:Arial;" text-anchor="middle" x="100.0" y="100.0">2017</text><line stroke="#e1ed5e" stroke-width="0.3" x1="100.0" x2="100.0" y1="15.0" y2="10.0" /><path d="M 100.0 14.0 a86.0,86.0 0 0,1 42.46469731375804,11.215312516191453" fill="none" id="id25" stroke="none" /><text fill="#e1ed5e" style="font-size:6.75px; font-family:Arial;" text-anchor="middle"><textPath startOffset="22.20632615414155" xlink:href="#id25">January</textPath></text><path d="M 100.72285384407766 79.0124445844662 l 1.8190490263268788 -52.81481527198816 a73.8461318506323,73.8461318506323 0 0,0 1.2700098814496208,0.05468929703197166 l -2.727899740165831 52.77567824843199" fill="#3fffbe" stroke="none" /><path d="M 101.08401301168833 79.027996857942 l 2.935434734551503 -56.79078185642696 a77.86659547524438,77.86659547524438 0 0,0 1.3379629892915204,0.08070958133249892 l -3.9125597726826356 56.73183900571416" fill="#45ffec" stroke="none" /><path d="M 101.44485096284872 79.0497635885617 l 3.5222397601057738 -51.072226526736955 a72.19353958583059,72.19353958583059 0 0,0 1.239012377685311,0.0961712067428723 l -4.400842327153426 51.004030057805615" fill="#3dffab" stroke="none" /><path d="M 101.80526077348638 79.07773832637324 l 4.298270771852911 -49.815266112016346 a71.00035869310508,71.00035869310508 0 0,0 1.2167259552965841,0.11554279036018568 l -5.155121854239739 49.73389777714098" fill="#3bff9c" stroke="none" /><path d="M 102.16513564639614 79.11191278185805 l 5.227655162653703 -50.433660895859724 a71.70387095536385,71.70387095536385 0 0,0 1.2265913302099345,0.13782182778954005 l -6.095013196373363 50.336203114599584" fill="#3cffa5" stroke="none" /><path d="M 102.52436894288641 79.15227682838746 l 6.2071582003508805 -51.26236250369799 a72.6367952373569,72.6367952373569 0 0,0 1.2399629171897086,0.16098277382523046 l -7.088635846048435 51.147921406708626" fill="#3dffb0" stroke="none" /><path d="M 103.2404852339499 79.25152402106235 l 8.530176512615881 -54.61779631452715 a76.2799021850759,76.2799021850759 0 0,0 1.2955625365714272,0.21377891934245746 l -9.469068255326183 54.46287113224506" fill="#42ffda" stroke="none" /><path d="M 103.59715602781102 79.31037775812273 l 7.4269667404548745 -42.71739537428546 a64.35822531569815,64.35822531569815 0 0,0 1.0898142342581456,0.199156585393398 l -8.161176095815922 42.583223307541324" fill="#32ff48" stroke="none" /><path d="M 104.307194497241 79.44645832069477 l 10.245563986457407 -48.890902548870436 a70.95289714765039,70.95289714765039 0 0,0 1.1932158033371014,0.2607907586090771 l -11.085622513948037 48.70729829216549" fill="#3bff9c" stroke="none" /><path d="M 104.66035177308747 79.52364482259891 l 11.441310010406198 -50.270095236313935 a72.55565972638013,72.55565972638013 0 0,0 1.2153982127879868,0.28764548902558523 l -12.304931910156709 50.06570383514748" fill="#3dffaf" stroke="none" /><path d="M 105.01212808612495 79.60689891045804 l 12.283387986105247 -49.97804697293298 a72.46539419499175,72.46539419499175 0 0,0 1.208761117354352,0.3081401230026038 l -13.141857992144624 49.75920385376151" fill="#3dffae" stroke="none" /><path d="M 105.71112130821622 79.79150937346287 l 8.213441393390555 -29.062813491837176 a51.20112162791267,51.20112162791267 0 0,0 0.8460614318294429,0.2469885324830603 l -8.712493042943425 28.917126630435412" fill="#b2ff20" stroke="none" /><path d="M 106.0581310904928 79.89281104454417 l 16.109298079219357 -53.467430067162354 a76.84152185060896,76.84152185060896 0 0,0 1.2631817774285319,0.39247672710086495 l -17.02726522935861 53.18221320517897" fill="#43ffe0" stroke="none" /><path d="M 106.40334571778207 80.00007090966166 l 15.784733861553823 -49.301345242731315 a72.7665960424584,72.7665960424584 0 0,0 1.1896201137296616,0.39219904782754605 l -16.6310367975259 49.022332470644535" fill="#3effb1" stroke="none" /><path d="M 107.08798089147638 80.2323363322302 l 17.240387389353405 -48.081701211219105 a72.07916354737932,72.07916354737932 0 0,0 1.1643107723238144,0.4288254834696692 l -18.065480487449793 47.777812459943114" fill="#3dffa9" stroke="none" /><path d="M 107.4271985657038 80.35727306442388 l 13.784752431238772 -36.45656238836317 a59.97563778525195,59.97563778525195 0 0,0 0.9625142677862853,0.37344058234473804 l -14.410249864024724 36.21387910212788" fill="#4bff2c" stroke="none" /><path d="M 108.43124777332544 80.76684994638697 l 21.182086810352313 -48.32004289579529 a73.75895513647706,73.75895513647706 0 0,0 1.1584296346293648,0.5197536096448512 l -22.01069856344846 47.948268955633914" fill="#3fffbd" stroke="none" /><path d="M 108.76106565485865 80.91482961587045 l 23.091356630904034 -50.302382502647 a76.34925868065626,76.34925868065626 0 0,0 1.1896733805444781,0.558567603944073 l -23.953808222748112 49.897449916062925" fill="#42ffdb" stroke="none" /><path d="M 109.08828744355905 81.06846463323043 l 22.31301464429259 -46.47956267900007 a72.5579321671022,72.5579321671022 0 0,0 1.1212920854539385,0.5502131566141863 l -23.10977799675696 46.088594362251044" fill="#3dffaf" stroke="none" /><path d="M 109.73455568895987 81.39251694778311 l 23.664659758699717 -45.234705051395544 a72.05090266177251,72.05090266177251 0 0,0 1.0939898674196502,0.5843714999072023 l -24.43979467264768 44.82065482498659" fill="#3dffa9" stroke="none" /><line stroke="#e1ed5e" stroke-width="0.3" x1="143.23703022742887" x2="145.7803849466894" y1="26.81831364943548" y2="22.513508569990506" /><path d="M 143.74570117128098 25.957352633546492 a86.0,86.0 0 0,1 28.547481713284135,27.462654790039103" fill="none" id="id26" stroke="none" /><text fill="#e1ed5e" style="font-size:6.75px; font-family:Arial;" text-anchor="middle"><textPath startOffset="19.985693538727396" xlink:href="#id26">February</textPath></text><path d="M 110.99172775467656 82.1063720568725 l 32.97518326402967 -53.68088382938249 a84.0,84.0 0 0,0 1.225523390510947,0.7674226347082231 l -33.894325806912875 53.10531685335132" fill="#4dd2ff" stroke="none" /><path d="M 111.2981086023043 82.29822771554956 l 29.048681292727462 -45.51320575043518 a74.99331238707161,74.99331238707161 0 0,0 1.0821641189972808,0.7038696453491623 l -29.82781243750902 45.00643718092649" fill="#41ffcb" stroke="none" /><path d="M 111.60114157652 82.49532879139004 l 25.81567227877 -38.95261964423421 a67.73066993263883,67.73066993263883 0 0,0 0.9662757503104085,0.6524336999715938 l -26.48235272348695 38.50247403196395" fill="#37ff74" stroke="none" /><path d="M 111.90073688211348 82.69761687909136 l 27.50858770231102 -39.99450859684698 a69.5415607008984,69.5415607008984 0 0,0 0.9804328870613978,0.6868558927246743 l -28.192951728956068 39.51506786135837" fill="#39ff8b" stroke="none" /><path d="M 112.19680574252982 82.90503203632743 l 26.758158726342177 -37.50407080754298 a67.0711882369157,67.0711882369157 0 0,0 0.9340611017906033,0.6786351142064135 l -27.39976514448657 37.037916458519895" fill="#36ff6c" stroke="none" /><path d="M 112.48926042617603 83.11751280151076 l 31.588473896967148 -42.700046919322936 a74.11427011690695,74.11427011690695 0 0,0 1.019084788459382,0.7675535348242755 l -32.318804839184914 42.14997679499281" fill="#3fffc1" stroke="none" /><path d="M 113.06298171725822 83.55741782278167 l 29.93118357255859 -37.674855267002386 a69.11725750127265,69.11725750127265 0 0,0 0.9251726754357463,0.7480919620887796 l -30.575259646558827 37.15405720764948" fill="#38ff85" stroke="none" /><path d="M 113.34407831869373 83.78471172551755 l 29.720578217082952 -36.11547624081094 a67.7722181819328,67.7722181819328 0 0,0 0.8944075939373783,0.7490406381371502 l -30.337843347979447 35.598534445279974" fill="#37ff74" stroke="none" /><path d="M 113.6212207817346 84.01681056812373 l 32.70989738244975 -38.38191117656567 a71.42924243270139,71.42924243270139 0 0,0 0.9289413841111639,0.8055688143607966 l -33.365732565207686 37.813177368785205" fill="#3cffa1" stroke="none" /><path d="M 113.89432698308785 84.25364557470407 l 26.94658266508185 -30.538394678013876 a61.72728651452532,61.72728651452532 0 0,0 0.7906648494248346,0.7098667085352116 l -27.468258502102675 30.070028960709365" fill="#37ff2e" stroke="none" /><path d="M 114.42810811169701 84.74124197986012 l 21.05800279802714 -22.270346645242295 a51.6497605462257,51.6497605462257 0 0,0 0.6407441945570482,0.6163954075029203 l -21.438230236196606 21.904568150977074" fill="#adff20" stroke="none" /><path d="M 114.68862486808459 84.99185889309783 l 28.6367987553887 -29.25972447595625 a61.941393715474625,61.941393715474625 0 0,0 0.7555794075069235,0.7523347094087438 l -29.136213963062946 28.76245391589739" fill="#35ff2f" stroke="none" /><path d="M 114.94478906791727 85.2469230424477 l 31.731172099368163 -31.324123867380525 a65.58775637839068,65.58775637839068 0 0,0 0.7862277211416802,0.8102767780043288 l -32.26566408421295 30.77328289382608" fill="#34ff59" stroke="none" /><path d="M 115.19652480421416 85.50635884689758 l 32.117075569561685 -30.63156703190542 a65.38242266901449,65.38242266901449 0 0,0 0.7697462596437888,0.8211116407821276 l -32.63958915117594 30.074185974245236" fill="#33ff56" stroke="none" /><path d="M 115.68641384162765 86.03803664274999 l 32.479674201370315 -28.909094560002817 a64.4817776143794,64.4817776143794 0 0,0 0.7308184630088602,0.8354518379644585 l -32.97248452795703 28.34572716583541" fill="#32ff4a" stroke="none" /><path d="M 115.9244219780498 86.31012108654704 l 30.67312906013662 -26.369021325156456 a61.449550454688044,61.449550454688044 0 0,0 0.682644187003172,0.8080354003512746 l -31.12248386062691 25.837126975176076" fill="#3aff2e" stroke="none" /><path d="M 116.15771136456269 86.58626213691792 l 31.461475402147876 -26.118549484414434 a61.89013403805081,61.89013403805081 0 0,0 0.6734280453946564,0.8255431566254545 l -31.90640193961894 25.57312215818088" fill="#36ff2f" stroke="none" /><path d="M 116.38621287248628 86.86637796730983 l 32.235753977974525 -25.837099272424357 a62.31222014539538,62.31222014539538 0 0,0 0.6636130364118221,0.8427211652840475 l -32.67572109498031 25.278385713187273" fill="#31ff2f" stroke="none" /><path d="M 117.04232023915458 87.72973835380427 l 24.610177083928505 -17.719025798214506 a51.32531436506654,51.32531436506654 0 0,0 0.5100450186946606,0.72142250774798 l -24.91153472242705 17.29277679013473" fill="#b1ff20" stroke="none" /><path d="M 117.2510076193507 88.02491185347247 l 42.613163149335826 -29.58067123819762 a72.87386417546166,72.87386417546166 0 0,0 0.7064445637287503,1.0366202265913247 l -43.11603217873331 28.84277298833589" fill="#3effb3" stroke="none" /><path d="M 117.45458315368197 88.32363383020206 l 33.67177684422992 -22.524971954888283 a61.51126901759709,61.51126901759709 0 0,0 0.581144892214052,0.8851235409013146 l -34.05451837180189 21.942030350009293" fill="#3aff2e" stroke="none" /><path d="M 117.65298651832404 88.62581576622439 l 38.00420162001985 -24.486892936498904 a66.20981382906459,66.20981382906459 0 0,0 0.6090432804508653,0.963360207613103 l -38.42007249671667 23.829085081171595" fill="#34ff61" stroke="none" /><line stroke="#e1ed5e" stroke-width="0.3" x1="172.23445277983987" x2="176.4835382374775" y1="55.19839476539836" y2="52.563006222186495" /><path d="M 173.08426987136738 54.67131705675599 a86.0,86.0 0 0,1 12.851231095245387,41.99856678651699" fill="none" id="id27" stroke="none" /><text fill="#e1ed5e" style="font-size:6.75px; font-family:Arial;" text-anchor="middle"><textPath startOffset="22.20632615414155" xlink:href="#id27">March</textPath></text><path d="M 117.84615892207809 88.93136811851018 l 36.811561189352325 -22.831446339066485 a64.31704028590946,64.31704028590946 0 0,0 0.5754359890814702,0.9458654653441556 l -37.19911297672002 22.19441310051525" fill="#32ff48" stroke="none" /><path d="M 118.03404312379186 89.2402003453031 l 34.44723011818945 -20.55253456957616 a61.11257084816581,61.11257084816581 0 0,0 0.5312146941228273,0.9080181080289953 l -34.795904486782604 19.95653704919327" fill="#3eff2d" stroke="none" /><path d="M 118.3937258080291 89.86733742301442 l 53.90932490626822 -29.697354670246202 a82.54793405354874,82.54793405354874 0 0,0 0.6748957953925048,1.2504794099548557 l -54.41252880087919 28.764994276958888" fill="#4be1ff" stroke="none" /><path d="M 118.56541770881063 90.18545643968196 l 24.915110800335178 -13.17128674912565 a49.18236222925026,49.18236222925026 0 0,0 0.3892211741620754,0.7518514218696118 l -25.13814140765737 12.740462604995695" fill="#ccff1d" stroke="none" /><path d="M 118.73160827565052 90.50648371742162 l 45.600110632986855 -23.1109569670201 a72.1222693321814,72.1222693321814 0 0,0 0.5517009719663063,1.1121954942344379 l -45.991171617906566 22.322601884286712" fill="#3dffaa" stroke="none" /><path d="M 118.89224826269711 90.83032412892265 l 40.31544939096428 -19.56779301073976 a65.81332372081498,65.81332372081498 0 0,0 0.4858960275691593,1.0234209529969744 l -40.6463036123752 18.870929642102244" fill="#34ff5b" stroke="none" /><path d="M 119.196687751892 91.48605970444005 l 40.997686866857016 -18.18292107220843 a65.84895703526473,65.84895703526473 0 0,0 0.4506241368160814,1.0401026369846358 l -41.30460171351578 17.474519290637193" fill="#34ff5c" stroke="none" /><path d="M 119.34039704204932 91.81776055985345 l 48.211285632346815 -20.396493510629583 a73.34830474669533,73.34830474669533 0 0,0 0.48192739803362583,1.167025420476743 l -48.55523471726664 19.563593519699538" fill="#3effb8" stroke="none" /><path d="M 119.47837535516314 92.15188598940014 l 56.24269404789629 -22.660980040831493 a81.63629812394744,81.63629812394744 0 0,0 0.5139450083698234,1.3079339876393583 l -56.62443260614781 21.68949704829635" fill="#4aeaff" stroke="none" /><path d="M 119.61058180528143 92.48833698450437 l 46.95641707992956 -17.986247681060707 a71.2832995201067,71.2832995201067 0 0,0 0.4290419988478945,1.1496192506508651 l -47.25906366727908 17.175305293380507" fill="#3bffa0" stroke="none" /><path d="M 119.7369772167798 92.82701384747503 l 38.71786569258902 -14.071187873295553 a62.19552708674744,62.19552708674744 0 0,0 0.357022817986545,1.0093515836576816 l -38.95434159138538 13.402638663211256" fill="#32ff2f" stroke="none" /><path d="M 119.97218684219823 93.5106431181261 l 40.25555762227966 -13.079823554317366 a63.32719815547391,63.32719815547391 0 0,0 0.3279278822729503,1.0396210011800384 l -40.47474098832082 12.384952386710909" fill="#31ff3b" stroke="none" /><path d="M 120.08093135843002 93.85539295169968 l 41.10011192232188 -12.576310973634813 a63.98119120886429,63.98119120886429 0 0,0 0.3131851977161831,1.0559047939973156 l -41.31050301714976 11.866976792890968" fill="#31ff43" stroke="none" /><path d="M 120.18372546131832 94.20196356495316 l 49.926712607993004 -14.342094542359513 a72.94585938939798,72.94585938939798 0 0,0 0.3362916295856954,1.2098199184627538 l -50.16619100814506 13.480563320477808" fill="#3effb4" stroke="none" /><path d="M 120.28053869075195 94.5502522615342 l 43.289383080459366 -11.632640589073317 a65.82509358117747,65.82509358117747 0 0,0 0.284626664388167,1.0967826444112105 l -43.483206076717835 10.885761519113256" fill="#34ff5c" stroke="none" /><path d="M 120.37134235888165 94.90015583598534 l 46.16644139347894 -11.557493490909215 a68.59113327847882,68.59113327847882 0 0,0 0.27687039499778904,1.1478065338702588 l -46.35854458873755 10.76110172537955" fill="#38ff7f" stroke="none" /><path d="M 120.6074358757038 95.95851677861258 l 38.88070587413782 -7.625195166143448 a60.62136911557944,60.62136911557944 0 0,0 0.19200888011028477,1.0257191152856813 l -39.00620047815796 6.954797973395205" fill="#43ff2d" stroke="none" /><path d="M 120.67395015179393 96.31383870115 l 59.11435760599496 -10.54007848590508 a81.04665294301168,81.04665294301168 0 0,0 0.23305983339261968,1.3755323294439707 l -59.287029300907804 9.52096036814527" fill="#49f0ff" stroke="none" /><path d="M 120.78858239683441 97.02765380044208 l 51.05089769733621 -7.299244309116694 a72.57007972834694,72.57007972834694 0 0,0 0.16616475152527319,1.2381204038843636 l -51.16897844791932 6.419405563167666" fill="#3dffaf" stroke="none" /><path d="M 120.83666639777658 97.38593545837742 l 47.21299867036615 -5.92310801410381 a68.58308997947418,68.58308997947418 0 0,0 0.13687109956966007,1.1726279953409644 l -47.30796012293939 5.109536280437992" fill="#38ff7f" stroke="none" /><path d="M 120.87857604477298 97.74499172005257 l 38.26938909664659 -4.133317765369005 a59.49195315361443,59.49195315361443 0 0,0 0.10120112216310989,1.0190814893114557 l -38.334867344491926 3.4739607453531147" fill="#50ff2b" stroke="none" /><path d="M 120.91429891909075 98.10471618934814 l 40.24797127680261 -3.6473289718009605 a61.41289646297165,61.41289646297165 0 0,0 0.08634511753376968,1.053629138074711 l -40.30479087815588 2.9539859165184805" fill="#3bff2e" stroke="none" /><path d="M 120.96714384426684 98.82574320788733 l 39.34244532133279 -2.2033584535896855 a60.40409613653212,60.40409613653212 0 0,0 0.04920457775300288,1.0386308680656342 l -39.37454350731929 1.5258164789010518" fill="#46ff2c" stroke="none" /><path d="M 120.98425023603335 99.18683210126433 l 37.570195478301905 -1.4558955677967598 a58.59839385109618,58.59839385109618 0 0,0 0.030382724602818326,1.0082547148261154 l -37.58968989736037 0.8089707055456452" fill="#5aff2a" stroke="none" /><line stroke="#e1ed5e" stroke-width="0.3" x1="184.98032266829074" x2="189.97916517819016" y1="98.17113171792111" y2="98.06355123074" /><path d="M 185.9800911702706 98.14961562048488 a86.0,86.0 0 0,1 -9.607161424134198,41.387399972396054" fill="none" id="id28" stroke="none" /><text fill="#e1ed5e" style="font-size:6.75px; font-family:Arial;" text-anchor="middle"><textPath startOffset="21.466115282336823" xlink:href="#id28">April</textPath></text><path d="M 120.99513854157772 99.54816195383933 l 39.287815846031386 -0.8455162091279512 a60.29691300358812,60.29691300358812 0 0,0 0.013400250657689065,1.0378641810323668 l -39.29654910380679 0.16911577003512163" fill="#47ff2c" stroke="none" /><path d="M 120.9904718944345 100.63252640178507 l 37.90574961517659 1.1422509951960946 a58.92295599270298,58.92295599270298 0 0,0 -0.03927598619048842,1.0135386846550825 l -37.8804714961349 -1.7945669268651834" fill="#56ff2a" stroke="none" /><path d="M 120.95626037817324 101.35467743843564 l 48.43632905023922 3.1310740075240284 a69.53742469789307,69.53742469789307 0 0,0 -0.08749609819703875,1.1938147439249245 l -48.375256393377846 -3.964361887945723" fill="#39ff8a" stroke="none" /><path d="M 120.92983693683757 101.71520430193887 l 50.70425724522702 4.155223971217863 a71.87423305604852,71.87423305604852 0 0,0 -0.11166313670138858,1.2321934087607154 l -50.625219512248556 -5.027398768527149" fill="#3cffa7" stroke="none" /><path d="M 120.89721153311464 102.0752229133903 l 53.154754510168125 5.278597306647272 a74.4162102414799,74.4162102414799 0 0,0 -0.13755552440895724,1.2735933177229777 l -53.05601668425812 -6.1927869462550404" fill="#40ffc5" stroke="none" /><path d="M 120.8583938346157 102.4346265915055 l 47.34547828605044 5.526243359710193 a68.66690340063653,68.66690340063653 0 0,0 -0.14713842941529123,1.1728380532319442 l -47.243338347388296 -6.340399167229532" fill="#38ff80" stroke="none" /><path d="M 120.76222939487914 103.15116336523771 l 44.52358204047064 6.757515194861045 a66.03346943466934,66.03346943466934 0 0,0 -0.18023441054441572,1.1223198465072566 l -44.40066587556494 -7.522914271061507" fill="#34ff5e" stroke="none" /><path d="M 120.70491114924044 103.5080841355445 l 53.80336412475128 9.11603661394549 a75.57017605512527,75.57017605512527 0 0,0 -0.22834269160721676,1.2806670791337433 l -53.63847499080487 -10.040822443812452" fill="#41ffd2" stroke="none" /><path d="M 120.64145759157962 103.86396538481128 l 54.28809227020235 10.162427164304239 a76.23107719579433,76.23107719579433 0 0,0 -0.25254291189755873,1.287710866953898 l -54.10511942532912 -11.095401758326082" fill="#42ffd9" stroke="none" /><path d="M 120.5718875245553 104.21870165774334 l 51.01283626126109 10.461263539609195 a73.07444189104086,73.07444189104086 0 0,0 -0.263297518588592,1.2300383505885302 l -50.82520470394806 -11.337815709613896" fill="#3effb5" stroke="none" /><path d="M 120.49622156327973 104.57218783832717 l 48.014165363102414 10.71074403947251 a70.19430976641952,70.19430976641952 0 0,0 -0.27322110262869526,1.177029359263812 l -47.822683694543166 -11.535642056084887" fill="#3aff93" stroke="none" /><path d="M 120.41448212921028 104.9243191809786 l 42.589134642195106 10.273221299097168 a64.81065470215262,64.81065470215262 0 0,0 -0.2709353426656482,1.0822520149749133 l -42.4059879852344 -11.004801153469478" fill="#33ff4e" stroke="none" /><path d="M 120.23288151984713 105.62410040840565 l 35.91557960090748 9.983393897871046 a58.2772988800043,58.2772988800043 0 0,0 -0.276976358600662,0.9641910401734615 l -35.73841060542071 -10.60014241354909" fill="#5eff2a" stroke="none" /><path d="M 120.13307415673323 105.97154293290107 l 46.589179270347366 13.818519817474616 a69.59529931002075,69.59529931002075 0 0,0 -0.3505390203058386,1.1455818004114573 l -46.34441347753539 -14.61842859043813" fill="#39ff8b" stroke="none" /><path d="M 120.02730092923936 106.31721596034902 l 43.938656880933685 13.859580255234908 a67.07269835110289,67.07269835110289 0 0,0 -0.3567876262413327,1.0980794035507948 l -43.69357700367611 -14.613858558763498" fill="#36ff6c" stroke="none" /><path d="M 119.79798401119884 107.00284435728193 l 57.402319352895816 20.304062673650993 a81.88744721325887,81.88744721325887 0 0,0 -0.4814815742406012,1.324830504202326 l -57.04431351764999 -21.28914097485945" fill="#4ae8ff" stroke="none" /><path d="M 119.54520255179757 107.68017299344265 l 45.59311892895092 17.91554934040544 a69.98672679244822,69.98672679244822 0 0,0 -0.45023922982580306,1.1174568445771518 l -45.27797708486773 -18.697705552825408" fill="#3aff90" stroke="none" /><path d="M 119.41010516605496 108.01547362559984 l 43.738403738960514 18.06193313205681 a68.3210459531402,68.3210459531402 0 0,0 -0.45823582316261763,1.0831341252825257 l -43.42101693460559 -18.8121417830055" fill="#37ff7b" stroke="none" /><path d="M 119.26925614724726 108.34839909993367 l 37.19283452488231 16.113783733985308 a61.53345490111751,61.53345490111751 0 0,0 -0.4294417334783296,0.9682777396869743 l -36.90995170667271 -16.75160981016497" fill="#39ff2e" stroke="none" /><path d="M 119.12269723197855 108.67885076344098 l 47.56338331826477 21.58667789464594 a73.23274925951517,73.23274925951517 0 0,0 -0.530851586471536,1.1434070904855287 l -47.1847571149534 -22.4022050524103" fill="#3effb7" stroke="none" /><path d="M 118.97047184881838 109.00673069616215 l 42.17527738761134 20.02382273321331 a67.68733767921566,67.68733767921566 0 0,0 -0.508772658146873,1.0482223692661274 l -41.82435147284975 -20.746834058444716" fill="#37ff73" stroke="none" /><path d="M 118.64920377521936 109.65438752849418 l 45.23104963377591 23.415374015338692 a71.93257887886003,71.93257887886003 0 0,0 -0.5787061323094492,1.0946939112293301 l -44.82129099324157 -24.190482941654157" fill="#3cffa8" stroke="none" /><line stroke="#e1ed5e" stroke-width="0.3" x1="174.80103733775053" x2="179.2010983576182" y1="140.37084112569926" y2="142.7455964860345" /><path d="M 175.68104954172406 140.8457921977663 a86.0,86.0 0 0,1 -30.038265399797805,32.042727171017184" fill="none" id="id29" stroke="none" /><text fill="#e1ed5e" style="font-size:6.75px; font-family:Arial;" text-anchor="middle"><textPath startOffset="22.206326154141568" xlink:href="#id29">May</textPath></text><path d="M 118.48025628344425 109.97397251340804 l 39.97148336499902 21.57299500006417 a66.4215102751019,66.4215102751019 0 0,0 -0.5516894434207964,1.0014765888400181 l -39.59421751212671 -22.257842107301993" fill="#35ff63" stroke="none" /><path d="M 118.30583269289576 110.29060199501025 l 40.19673182537314 22.596544809218532 a67.1126998424077,67.1126998424077 0 0,0 -0.5747659571181684,1.0021528934022303 l -39.80181387210259 -23.28511754847908" fill="#36ff6c" stroke="none" /><path d="M 118.12598468904814 110.60418214915192 l 42.74041374611188 25.00427647209316 a70.51723749444935,70.51723749444935 0 0,0 -0.6219590941381927,1.042439216795865 l -42.30367377627545 -25.73627778277513" fill="#3aff96" stroke="none" /><path d="M 117.94076556474637 110.91462005526583 l 45.782432694183925 27.852649668679955 a74.58918955315241,74.58918955315241 0 0,0 -0.6767561003992625,1.091146317677116 l -45.2962119541167 -28.636592317722346" fill="#40ffc7" stroke="none" /><path d="M 117.55443506779139 111.5257021239791 l 41.2183851378124 27.062723881187484 a70.3086837913813,70.3086837913813 0 0,0 -0.6729441478441529,1.0059601947660284 l -40.74643788455752 -27.768220990159318" fill="#3aff94" stroke="none" /><path d="M 117.35343817320211 111.8261652097733 l 38.71040816462079 26.380690542322004 a67.84481330693183,67.84481330693183 0 0,0 -0.665974679468817,0.9593861965135131 l -38.250572577989836 -27.04311800102254" fill="#37ff75" stroke="none" /><path d="M 116.93607887273984 112.41649034213515 l 40.981190037847554 30.04488548604762 a71.814890345133,71.814890345133 0 0,0 -0.7394838533648772,0.9906594663064702 l -40.457944917787586 -30.745857831863404" fill="#3cffa6" stroke="none" /><path d="M 116.71984013943494 112.70617746262583 l 29.367641283181392 22.31782473342776 a57.8855480557036,57.8855480557036 0 0,0 -0.6097089815008347,0.7881310481876419 l -28.979125484462486 -22.820033775728653" fill="#62ff29" stroke="none" /><path d="M 116.27256486870786 113.27417163493432 l 37.40377700345837 30.51173307617249 a69.27016044551789,69.27016044551789 0 0,0 -0.7616551016612443,0.9174626355163699 l -36.87302590190359 -31.151056968802628" fill="#39ff87" stroke="none" /><path d="M 116.0416608686014 113.55231037782055 l 35.08954798310816 29.64433977128265 a66.93542487159665,66.93542487159665 0 0,0 -0.7511349640978164,0.873739658793223 l -34.574070509439565 -30.243956529237398" fill="#35ff6a" stroke="none" /><path d="M 115.56566222782051 114.09645910891815 l 25.23139777038461 22.84987055002262 a55.04027052771703,55.04027052771703 0 0,0 -0.6420148557453088,0.6967803264375545 l -24.83433650664358 -23.280802131261506" fill="#83ff25" stroke="none" /><path d="M 115.32070863581623 114.36230785411682 l 36.29594849362842 34.02542261681007 a70.75063076288237,70.75063076288237 0 0,0 -0.8405628029116688,0.8813267383270844 l -35.704879139337784 -34.64515647171966" fill="#3bff99" stroke="none" /><path d="M 114.55890576462653 115.13401014063108 l 24.000096364788277 24.948145666505468 a55.61812527732111,55.61812527732111 0 0,0 -0.6956613556530991,0.6577912327625098 l -23.567099174744367 -25.3575715360139" fill="#7cff26" stroke="none" /><path d="M 114.0293411484842 115.62618273729858 l 30.71859508166695 34.21503369964541 a66.98152471220679,66.98152471220679 0 0,0 -0.8645644993914297,0.7628776495222579 l -30.125088229368934 -34.738734490939954" fill="#36ff6a" stroke="none" /><path d="M 113.75828350139079 115.86535959552629 l 31.77363451006994 36.63975503253186 a69.49778859724896,69.49778859724896 0 0,0 -0.9105352830787243,0.7759779218807944 l -31.13823375041417 -37.1812573446356" fill="#39ff8a" stroke="none" /><path d="M 113.48314897796784 116.09983520530334 l 29.94349117071803 35.75465005302308 a67.63697743105799,67.63697743105799 0 0,0 -0.8990238483788973,0.7398354219838515 l -29.32359719379444 -36.26478059386411" fill="#36ff73" stroke="none" /><path d="M 113.20401910651253 116.32954008644616 l 30.364764996470896 37.5524030392252 a69.29287656902738,69.29287656902738 0 0,0 -0.9339442629011726,0.741981806733481 l -29.713863240852373 -38.069518759963806" fill="#39ff87" stroke="none" /><path d="M 112.92097659922987 116.55440617244103 l 29.12966824716596 37.32104583029625 a68.34340539142724,68.34340539142724 0 0,0 -0.9336076001773023,0.7158504967455765 l -28.48293191849516 -37.8169356688692" fill="#37ff7c" stroke="none" /><path d="M 112.34349029814194 116.9893568818739 l 30.441855146330816 41.899619049012074 a72.79077737592402,72.79077737592402 0 0,0 -1.0200160269700056,0.7277543521378682 l -29.716111791511928 -42.41741766299416" fill="#3effb2" stroke="none" /><path d="M 112.04921762599082 117.19931262002967 l 22.89318076808741 32.67821904451727 a60.89942011610919,60.89942011610919 0 0,0 -0.8637368100972291,0.5940860539576017 l -22.3272870733673 -33.067445887839966" fill="#40ff2d" stroke="none" /><path d="M 111.7513745106137 117.40417183066458 l 24.462245303500538 36.22938918689579 a64.71464384098532,64.71464384098532 0 0,0 -0.9285790262533726,0.6154115447340615 l -23.8349915785072 -36.64509875272117" fill="#32ff4d" stroke="none" /><path d="M 111.45004920935366 117.60387380957326 l 23.45562673399963 36.06184441657001 a64.01886851382332,64.01886851382332 0 0,0 -0.9289387737393688,0.5928926766173528 l -22.83140615821333 -36.46025152201117" fill="#31ff44" stroke="none" /><path d="M 111.1453310114006 117.79835938074945 l 22.06132618208676 35.23048453231839 a62.56788608161777,62.56788608161777 0 0,0 -0.9177243014001939,0.5637412215623943 l -21.45162268075426 -35.605014220709165" fill="#2fff31" stroke="none" /><line stroke="#e1ed5e" stroke-width="0.3" x1="143.8653032363475" x2="146.44561519142675" y1="172.8068346515853" y2="177.08958963109032" /><path d="M 144.38136562736335 173.6633856474863 a86.0,86.0 0 0,1 -40.68145358897372,12.25698825130547" fill="none" id="id30" stroke="none" /><text fill="#e1ed5e" style="font-size:6.75px; font-family:Arial;" text-anchor="middle"><textPath startOffset="21.466115282336833" xlink:href="#id30">June</textPath></text><path d="M 110.5260780823613 118.17145234162733 l 22.14848374882617 38.23552454503709 a65.18722292253894,65.18722292253894 0 0,0 -0.9757944717467996,0.5540815677291918 l -21.48704051015817 -38.6111092785609" fill="#33ff53" stroke="none" /><path d="M 109.89434966115114 118.52300852407294 l 22.411385229657686 41.95589339996443 a68.56645013979178,68.56645013979178 0 0,0 -1.0458313219637498,0.5471295186106198 l -21.68586300516744 -42.33545233751977" fill="#38ff7e" stroke="none" /><path d="M 109.57404056367764 118.69057910512821 l 21.75381113693683 42.46810165349401 a68.71548969708911,68.71548969708911 0 0,0 -1.0573877132038036,0.530196150409236 l -21.019569516050264 -42.83626564481254" fill="#38ff80" stroke="none" /><path d="M 109.2508944713604 118.85261126421891 l 20.769558556623583 42.32676254276575 a68.14795212932046,68.14795212932046 0 0,0 -1.0575502047939096,0.507688365521185 l -20.03789568382944 -42.67800518478649" fill="#37ff79" stroke="none" /><path d="M 108.92500713936063 119.00905698771935 l 17.618965801915383 37.52601199793336 a62.456356960038136,62.456356960038136 0 0,0 -0.9770910537688957,0.44853457949543696 l -16.970406752379066 -37.82373364776287" fill="#30ff2f" stroke="none" /><path d="M 108.2653958097858 119.30500536409082 l 19.63011212632285 45.84891378676608 a70.8744844336091,70.8744844336091 0 0,0 -1.125650635810074,0.4705220570615806 l -18.837990031015313 -46.180020886847636" fill="#3bff9b" stroke="none" /><path d="M 107.59598834532513 119.57807347666477 l 17.68644762820053 45.58545319770002 a69.89625724884041,69.89625724884041 0 0,0 -1.1254288587254024,0.4255408952505397 l -16.89914854871485 -45.88314234305719" fill="#3aff8f" stroke="none" /><path d="M 106.91757812671514 119.82793768551818 l 2.3401866673267735 6.707705292555853 a28.10420888837848,28.10420888837848 0 0,0 -0.45813911115936023,0.15542566075654754 l -2.2243778232301863 -6.746993940210524" fill="#ff0000" stroke="none" /><path d="M 106.57524785965236 119.94407469862006 l 8.502946446289565 25.791179694347065 a48.156675943395,48.156675943395 0 0,0 -0.7894912199373095,0.2527701573129248 l -8.057733881261315 -25.933722698319695" fill="#d9ff1c" stroke="none" /><path d="M 105.53697534728816 120.25689768951611 l 16.097040646450477 58.8906551008633 a82.0509948795457,82.0509948795457 0 0,0 -1.3656003279631481,0.36066745836330494 l -15.080949875675833 -59.159013908530184" fill="#4ae6ff" stroke="none" /><path d="M 104.83641907484287 120.43548508189849 l 12.663973561167541 53.509515776443436 a75.98767593731708,75.98767593731708 0 0,0 -1.2754345077318636,0.2902847415015222 l -11.741018904042816 -53.719577251522644" fill="#42ffd7" stroke="none" /><path d="M 104.48393922423573 120.51570834832081 l 11.745232399532211 53.73885557807091 a76.00740934601251,76.00740934601251 0 0,0 -1.2805747819643676,0.2683568963560202 l -10.818466156138467 -53.933068455153474" fill="#42ffd7" stroke="none" /><path d="M 104.13013068566511 120.58985236759428 l 9.169788294170745 45.713949893734444 a67.6245668317334,67.6245668317334 0 0,0 -1.1432814893250243,0.2191126184620189 l -8.381539190274015 -45.865019710544935" fill="#36ff73" stroke="none" /><path d="M 103.7750983002368 120.6578951692458 l 9.951600780699511 54.456628501827176 a76.35845685967443,76.35845685967443 0 0,0 -1.2950068070181024,0.22515353289016513 l -9.012745002209359 -54.61986061323835" fill="#42ffdb" stroke="none" /><path d="M 103.41894727170886 120.7198165907248 l 7.849110672366051 47.567897544801355 a69.21113372634758,69.21113372634758 0 0,0 -1.1771302288593508,0.18384353284197538 l -7.029144579898183 -47.69595938499044" fill="#39ff86" stroke="none" /><path d="M 102.70371172650421 120.8252237178851 l 7.044054703473513 54.25652951194105 a75.71187897838692,75.71187897838692 0 0,0 -1.2938531959331305,0.15666760334362007 l -6.109074084489002 -54.36974264401002" fill="#42ffd4" stroke="none" /><path d="M 102.34483914955558 120.86867818915974 l 5.585649045594689 49.71134690931577 a71.02416902657046,71.02416902657046 0 0,0 -1.2160940969108915,0.12605312545358305 l -4.729122352078195 -49.800129403225114" fill="#3bff9d" stroke="none" /><path d="M 101.98527174616119 120.90594882070398 l 4.578055650326793 48.20931809921387 a69.42620101895955,69.42620101895955 0 0,0 -1.190678133076012,0.10273671943409467 l -3.7475331995092396 -48.28097907092663" fill="#39ff89" stroke="none" /><path d="M 101.62511606390274 120.93702456842531 l 3.8734617551757013 49.90336735593519 a71.0534692047437,71.0534692047437 0 0,0 -1.2202155700513362,0.0841532098563394 l -3.0138834243454347 -49.96264891030781" fill="#3bff9d" stroke="none" /><path d="M 100.90346689309514 120.98055641714683 l 2.1679830436119616 50.34549788768903 a71.39215522317625,71.39215522317625 0 0,0 -1.2282158443913214,0.042302237058932546 l -1.301046847545988 -50.37535692317405" fill="#3cffa1" stroke="none" /><line stroke="#e1ed5e" stroke-width="0.3" x1="102.19456741930631" x2="102.32365962044197" y1="184.97166512339345" y2="189.96999836594603" /><path d="M 102.22038585953345 185.97133177190398 a86.0,86.0 0 0,1 -42.740103519485714,-10.115201625700543" fill="none" id="id31" stroke="none" /><text fill="#e1ed5e" style="font-size:6.75px; font-family:Arial;" text-anchor="middle"><textPath startOffset="22.20632615414155" xlink:href="#id31">July</textPath></text><path d="M 100.54218724476979 120.99299961872073 l 1.3214460546633373 51.16519576827367 a72.18225745003004,72.18225745003004 0 0,0 -1.242360834142197,0.02138836842973137 l -0.44052553062847244 -51.18036161398256" fill="#3dffab" stroke="none" /><path d="M 100.18074693466247 120.99922214144158 l 0.4456176385199759 51.77196392791146 a72.77388167824319,72.77388167824319 0 0,0 -1.2527291463648271,0.0 l 0.44561763851994024 -51.77196392791146" fill="#3effb2" stroke="none" /><path d="M 99.45781275523022 120.99299961872073 l -1.397882389745525 54.124741513247564 a75.14279009297013,75.14279009297013 0 0,0 -1.2927409894749697,-0.044524613521550016 l 2.329343730895138 -54.09266010129992" fill="#41ffcd" stroke="none" /><path d="M 99.09653310690486 120.98055641714683 l -2.1097696540853295 48.99365056209148 a70.03905508259336,70.03905508259336 0 0,0 -1.2040445029457656,-0.0622353477159037 l 2.952802225444584 -48.950075407613376" fill="#3aff91" stroke="none" /><path d="M 98.37488393609728 120.93702456842531 l -4.0095188915220294 51.65624622389271 a72.81162046959062,72.81162046959062 0 0,0 -1.248738992693778,-0.10774645470927167 l 4.898102201957349 -51.579575516904775" fill="#3effb2" stroke="none" /><path d="M 97.65516085044442 120.86867818915974 l -5.262658093476044 46.83678118950869 a68.13151432325026,68.13151432325026 0 0,0 -1.164311053171238,-0.14098185390753235 l 6.068096569698671 -46.739253806875816" fill="#37ff79" stroke="none" /><path d="M 96.93821686468263 120.77559828337769 l -6.883351222999453 46.70668480823356 a68.21117378158314,68.21117378158314 0 0,0 -1.1601230940927858,-0.18118736816082992 l 7.6863101807007554 -46.581279132725626" fill="#37ff7a" stroke="none" /><path d="M 96.58105272829116 120.7198165907248 l -8.722894551816815 52.863282434754204 a74.57812537910138,74.57812537910138 0 0,0 -1.2648131456882559,-0.2199039778434563 l 9.63155666897712 -52.70529987838974" fill="#40ffc7" stroke="none" /><path d="M 96.22490169976321 120.6578951692458 l -9.342557365674056 51.123853029377806 a72.97048899808749,72.97048899808749 0 0,0 -1.2336612749933755,-0.23643411949105503 l 10.221186255239127 -50.955461711538284" fill="#3effb4" stroke="none" /><path d="M 95.51606077576429 120.51570834832081 l -8.855782219416517 40.51853428962615 a62.475010544873214,62.475010544873214 0 0,0 -1.0486277325493447,-0.2386642578894378 l 9.551930101358725 -40.36009329815903" fill="#2fff2f" stroke="none" /><path d="M 94.46302465271185 120.25689768951611 l -10.556611238047738 38.621120807746365 a61.037894715854065,61.037894715854065 0 0,0 -1.0111038636265577,-0.2857480515043764 l 11.21984626977891 -38.433683962903466" fill="#3fff2d" stroke="none" /><path d="M 94.11515582081647 120.15858648285463 l -13.008657157959368 44.56127169384331 a67.42124617053972,67.42124617053972 0 0,0 -1.1112466930499303,-0.3348095129203213 l 13.773778825449545 -44.330746811817264" fill="#36ff70" stroke="none" /><path d="M 93.76903079525671 120.05430185196036 l -14.087411933443628 45.34017131895394 a68.47827198008183,68.47827198008183 0 0,0 -1.1226479698952057,-0.359436427906038 l 14.865781248429773 -45.09096204438819" fill="#38ff7d" stroke="none" /><path d="M 92.06813273071674 119.44442032107085 l -16.09048129148702 39.444694518731175 a63.60032293149566,63.60032293149566 0 0,0 -1.0101201372777062,-0.42223029930525147 l 16.767072888262188 -39.161879176405954" fill="#31ff3e" stroke="none" /><path d="M 91.7346041902142 119.30500536409082 l -18.2944011356422 42.72917113518786 a67.48082592652543,67.48082592652543 0 0,0 -1.0638812533948716,-0.4663742769002656 l 19.027203063694817 -42.407932304993146" fill="#36ff71" stroke="none" /><path d="M 91.40352486487194 119.15986991738527 l -17.813035402597368 39.701788905652464 a64.51478223044643,64.51478223044643 0 0,0 -1.0092938432760494,-0.46331730071108695 l 18.493797241640838 -39.389284534607306" fill="#32ff4b" stroke="none" /><path d="M 91.07499286063937 119.00905698771935 l -18.599227948667657 39.613837667936444 a64.76285428383437,64.76285428383437 0 0,0 -1.005018752154661,-0.48247007592323254 l 19.27835936882256 -39.28781331551365" fill="#32ff4e" stroke="none" /><path d="M 90.7491055286396 118.85261126421891 l -20.398349266489145 41.57026656648619 a67.30528819915062,67.30528819915062 0 0,0 -1.035687660659102,-0.5193152935776213 l 21.110890834831007 -41.21298343199927" fill="#36ff6f" stroke="none" /><path d="M 90.42595943632237 118.69057910512821 l -19.56979316472401 38.204430489248914 a63.92499637178704,63.92499637178704 0 0,0 -0.9750360901830547,-0.5100927993322488 l 20.22452015743356 -37.861908270971945" fill="#31ff43" stroke="none" /><line stroke="#e1ed5e" stroke-width="0.3" x1="58.666819895761336" x2="56.23545636021788" y1="174.27360380694188" y2="178.64263932499728" /><path d="M 58.180547188652646 175.14741091055294 a86.0,86.0 0 0,1 -31.652253787137756,-30.449443065178592" fill="none" id="id32" stroke="none" /><text fill="#e1ed5e" style="font-size:6.75px; font-family:Arial;" text-anchor="middle"><textPath startOffset="22.20632615414155" xlink:href="#id32">August</textPath></text><path d="M 89.7882731507175 118.34994917583269 l -25.774648539701346 46.3157209068613 a74.00451405745928,74.00451405745928 0 0,0 -1.107781440350437,-0.6290272131506215 l 26.56807874697299 -45.86519052791605" fill="#3fffc0" stroke="none" /><path d="M 89.4739219176387 118.17145234162733 l -25.528542836730573 44.07061166363474 a71.93059308287786,71.93059308287786 0 0,0 -1.0660529344464384,-0.629842864373187 l 26.283363642205394 -43.6246502269678" fill="#3cffa8" stroke="none" /><path d="M 89.1626897886671 117.98757091392108 l -27.244172539731586 45.21938340724586 a73.79240071360807,73.79240071360807 0 0,0 -1.082361633653392,-0.6648749178779271 l 28.018513373317287 -44.74372002253955" fill="#3fffbd" stroke="none" /><path d="M 88.54995079064634 117.60387380957326 l -26.536199103161312 40.79806923590783 a69.66880228874086,69.66880228874086 0 0,0 -0.9996653732419467,-0.6625236992980588 l 27.23453917514322 -40.335247515518454" fill="#39ff8c" stroke="none" /><path d="M 87.36589467227662 116.77436683061367 l -19.1834432964144 25.469956643642885 a52.8860970978857,52.8860970978857 0 0,0 -0.7224524723565425,-0.5539457488491775 l 19.61902449726443 -25.135971552966343" fill="#9dff22" stroke="none" /><path d="M 87.07902340077011 116.55440617244103 l -29.823764567959778 38.2103247736466 a69.47149525558959,69.47149525558959 0 0,0 -0.9363517238960114,-0.7438944393493127 l 30.477073784573147 -37.691296420292154" fill="#39ff8a" stroke="none" /><path d="M 86.79598089348748 116.32954008644616 l -25.76476005343037 31.86353175622458 a61.976914434724996,61.976914434724996 0 0,0 -0.8237908647315052,-0.6779237982774851 l 26.30942104670656 -31.415312839089918" fill="#35ff2f" stroke="none" /><path d="M 86.51685102203217 116.09983520530335 l -27.1005554659678 32.359983390172786 a63.20910602673617,63.20910602673617 0 0,0 -0.8281432029836361,-0.7057616037657656 l 27.653564145528495 -31.88869739618407" fill="#30ff39" stroke="none" /><path d="M 85.97065885151581 115.62618273729859 l -26.97117271468446 30.041073847893237 a61.37214727432657,61.37214727432657 0 0,0 -0.7800120837002054,-0.712522544552132 l 27.48428434785152 -29.57235853675453" fill="#3bff2e" stroke="none" /><path d="M 85.70375840098266 115.38237550388516 l -28.0863089279709 30.220120963671096 a62.25647173785382,62.25647173785382 0 0,0 -0.778692581085479,-0.7363024389566075 l 28.602337343447196 -29.73218388796856" fill="#32ff2f" stroke="none" /><path d="M 85.44109423537348 115.13401014063109 l -29.071545700756374 30.219926864836992 a62.93326542432944,62.93326542432944 0 0,0 -0.7742291485486806,-0.7577461754899193 l 29.587424801680847 -29.715030586424504" fill="#30ff36" stroke="none" /><path d="M 84.9287848128048 114.62390073753433 l -29.395573913201144 28.523111752444482 a61.95934166620489,61.95934166620489 0 0,0 -0.7361166584090909,-0.7718153733863132 l 29.88219712298919 -28.01288926247567" fill="#35ff2f" stroke="none" /><path d="M 84.67929136418377 114.36230785411682 l -29.997855985702547 28.12131298045324 a62.11787454968408,62.11787454968408 0 0,0 -0.7245712618388479,-0.7863790001638588 l 30.477473655537125 -27.600782725488035" fill="#33ff2f" stroke="none" /><path d="M 84.43433777217949 114.09645910891817 l -30.175783207484702 27.32756806861843 a61.71085689014773,61.71085689014773 0 0,0 -0.7062694444840416,-0.7935012079888026 l 30.64171150161708 -26.804092690888762" fill="#38ff2e" stroke="none" /><path d="M 84.19399662182784 113.82643327865904 l -31.297975894920683 27.37816544223985 a62.5827757382993,62.5827757382993 0 0,0 -0.7022904702182079,-0.8169224775193336 l 31.76460887470967 -26.835365865558988" fill="#2fff31" stroke="none" /><path d="M 83.95833913139862 113.55231037782056 l -31.535597451324016 26.641892514189017 a62.282978857509235,62.282978857509235 0 0,0 -0.6848280455592944,-0.8249194972684672 l 31.98952149677685 -26.095111759806787" fill="#31ff2f" stroke="none" /><path d="M 83.50135304334701 112.99209946851258 l -32.23929514188403 25.38730178168885 a62.035195174387184,62.035195174387184 0 0,0 -0.6534172507200487,-0.8446298780874596 l 32.671519209822144 -24.82859390948814" fill="#34ff2f" stroke="none" /><path d="M 83.28015986056508 112.70617746262583 l -31.290979714315704 23.77945829109809 a60.30124741149816,60.30124741149816 0 0,0 -0.6209269217604115,-0.8318330821254142 l 31.695667902771202 -23.23731232946337" fill="#47ff2c" stroke="none" /><path d="M 83.06392112726016 112.41649034213515 l -32.70168462983647 23.97486185727869 a61.548664327014265,61.548664327014265 0 0,0 -0.6190629361026664,-0.8598242734721107 l 33.10952735831474 -23.40840397835544" fill="#39ff2e" stroke="none" /><path d="M 82.6465618267979 111.8261652097733 l -34.45072031386743 23.47776307847997 a62.69001666242837,62.69001666242837 0 0,0 -0.6000237462332224,-0.8969540883277016 l 34.84974716551138 -22.88127207594645" fill="#30ff32" stroke="none" /><path d="M 82.44556493220864 111.52570212397912 l -34.3713748933474 22.567187555878398 a62.11775001433353,62.11775001433353 0 0,0 -0.5791596833698551,-0.898868690039767 l 34.754739440094305 -21.97219726591718" fill="#33ff2f" stroke="none" /><line stroke="#e1ed5e" stroke-width="0.3" x1="26.63291911575756" x2="22.317208475507996" y1="142.92168965132927" y2="145.44649492493687" /><path d="M 25.769776987707644 143.4266507060508 a86.0,86.0 0 0,1 -11.730757126820373,-40.83630448921669" fill="none" id="id33" stroke="none" /><text fill="#e1ed5e" style="font-size:6.75px; font-family:Arial;" text-anchor="middle"><textPath startOffset="21.46611528233685" xlink:href="#id33">September</textPath></text><path d="M 81.87401531095188 110.60418214915194 l -46.18937366705541 27.022009569314 a74.51305673309056,74.51305673309056 0 0,0 -0.6381440244776669,-1.1126578959967266 l 46.64766968768546 -26.222931827458968" fill="#40ffc6" stroke="none" /><path d="M 81.69416730710424 110.29060199501025 l -41.043868376700985 23.072761610245223 a68.08451401094803,68.08451401094803 0 0,0 -0.5655021616446706,-1.0265506845915553 l 41.43494694779717 -22.362840407255845" fill="#37ff78" stroke="none" /><path d="M 81.35079622478065 109.6543875284942 l -46.56965537001712 24.108348293560205 a73.4399204683395,73.4399204683395 0 0,0 -0.5715071187488961,-1.1276377641859927 l 46.977741158552284 -23.30315631767153" fill="#3effb9" stroke="none" /><path d="M 81.02952815118164 109.00673069616217 l -39.158060510820235 18.591319626398658 a64.34732827314707,64.34732827314707 0 0,0 -0.4664427000815841,-1.0046760792850804 l 39.47227782774165 -17.914523479834752" fill="#32ff48" stroke="none" /><path d="M 80.87730276802145 108.67885076344099 l -40.72064148648673 18.481094281083102 a65.71824559279206,65.71824559279206 0 0,0 -0.4586473708306167,-1.0341287418533187 l 41.032729942048626 -17.777417202737087" fill="#34ff5a" stroke="none" /><path d="M 80.58989483394504 108.01547362559985 l -40.953288213659754 16.911809531678944 a65.30779973263026,65.30779973263026 0 0,0 -0.4201387148800198,-1.042749835006971 l 41.23832954279717 -16.204360328829168" fill="#33ff55" stroke="none" /><path d="M 80.20201598880116 107.00284435728193 l -41.5945253677011 14.712608470653459 a65.11989787584594,65.11989787584594 0 0,0 -0.3646998608685744,-1.0599885079048312 l 41.84161605951291 -13.994447259659331" fill="#33ff52" stroke="none" /><path d="M 80.0844068197444 106.66101706037122 l -41.88198194034735 14.00794812897623 a65.16246168450837,65.16246168450837 0 0,0 -0.3466262815722063,-1.0668060003470579 l 42.116900472935804 -13.284943228651368" fill="#33ff53" stroke="none" /><path d="M 79.97269907076064 106.31721596034903 l -38.94588221526744 12.284708238490783 a61.83743133487129,61.83743133487129 0 0,0 -0.31146403296285163,-1.017882480910944 l 39.151573020736414 -11.61249878502779" fill="#36ff2e" stroke="none" /><path d="M 79.86692584326677 105.97154293290107 l -43.707229867030584 12.963723155108017 a66.58925378520397,66.58925378520397 0 0,0 -0.3164808491439629,-1.1017113542569716 l 43.92390335306065 -12.20945432534645" fill="#35ff65" stroke="none" /><path d="M 79.76711848015287 105.62410040840567 l -44.095463371972166 12.257142578326128 a66.76731840707247,66.76731840707247 0 0,0 -0.29826526558422334,-1.1099560106411777 l 44.29991671389816 -11.496295634509412" fill="#35ff68" stroke="none" /><path d="M 79.58551787078972 104.9243191809786 l -39.875923508668926 9.618748775997974 a62.01962461657807,62.01962461657807 0 0,0 -0.24140233415992862,-1.0399549374749073 l 40.03558640875941 -8.930925181174493" fill="#34ff2f" stroke="none" /><path d="M 79.50377843672027 104.57218783832718 l -43.51083238907178 9.706164527476576 a65.58028897421306,65.58028897421306 0 0,0 -0.236295028855371,-1.1038917081466115 l 43.67146145665159 -8.955758999913801" fill="#34ff58" stroke="none" /><path d="M 79.4281124754447 104.21870165774334 l -40.07329837413945 8.217879379343932 a61.90724610721496,61.90724610721496 0 0,0 -0.2050900600462313,-1.0457497976933474 l 40.20881836716135 -7.52686585458263" fill="#35ff2f" stroke="none" /><path d="M 79.23777060512086 103.15116336523772 l -46.279940467477154 7.024084464766877 a67.80994180984857,67.80994180984857 0 0,0 -0.1652171439623858,-1.15552832006666 l 46.39399166245614 -6.226410672719815" fill="#37ff75" stroke="none" /><path d="M 79.1416061653843 102.43462659150553 l -39.691260107566286 4.632830220506958 a60.96072127450311,60.96072127450311 0 0,0 -0.11268356660533685,-1.0433098784101444 l 39.765125975672674 -3.948924020212031" fill="#40ff2d" stroke="none" /><path d="M 79.10278846688536 102.07522291339032 l -39.867570373802025 3.9590973853047675 a61.063669572523985,61.063669572523985 0 0,0 -0.09486794631461264,-1.0468598823632977 l 39.929812916393715 -3.272256114392903" fill="#3fff2d" stroke="none" /><path d="M 79.07016306316243 101.71520430193888 l -38.715972255555826 3.172781630687152 a59.845759755332296,59.845759755332296 0 0,0 -0.07530147248015731,-1.0274287646932543 l 38.764850286700316 -2.5058797294971367" fill="#4cff2c" stroke="none" /><path d="M 79.04373962182676 101.35467743843564 l -45.83008209727241 2.962598149596006 a66.92573802170978,66.92573802170978 0 0,0 -0.06441968499827735,-1.1502567503409455 l 45.874288133158224 -2.173269682919623" fill="#35ff6a" stroke="none" /><path d="M 79.0095281055655 100.63252640178507 l -43.67007565383001 1.315953064700897 a64.68989860459432,64.68989860459432 0 0,0 -0.023959713155226586,-1.113313722438301 l 43.68625742967025 -0.5640495264724672" fill="#32ff4d" stroke="none" /><line stroke="#e1ed5e" stroke-width="0.3" x1="15.007084014347285" x2="10.007500721073583" y1="101.09737516637583" y2="101.16192664675087" /><path d="M 14.007167355692545 101.11028546245083 a86.0,86.0 0 0,1 10.666146001902534,-42.60595125391555" fill="none" id="id34" stroke="none" /><text fill="#e1ed5e" style="font-size:6.75px; font-family:Arial;" text-anchor="middle"><textPath startOffset="22.20632615414155" xlink:href="#id34">October</textPath></text><path d="M 79.00019446554 99.90962569577889 l -39.653204200043966 -0.1706506631138253 a60.653571402576155,60.653571402576155 0 0,0 0.013479513620045453,-1.0440031848176916 l 39.6443916793062 0.8531901059919889" fill="#43ff2d" stroke="none" /><path d="M 79.00486145842228 99.54816195383935 l -42.258092256173214 -0.9094397639574183 a63.267877186056005,63.267877186056005 0 0,0 0.032803808473547656,-1.0885987017319607 l 42.236176753244024 1.6367086131143735" fill="#30ff3a" stroke="none" /><path d="M 79.03285615573316 98.82574320788736 l -46.091997230198366 -2.581364501126222 a67.16422479968973,67.16422479968973 0 0,0 0.07458238228454762,-1.15375644299815 l 46.04073425690941 3.374380008377384" fill="#36ff6d" stroke="none" /><path d="M 79.05617556472873 98.46500227214037 l -48.9156932060109 -3.5850891588574907 a70.04689496901449,70.04689496901449 0 0,0 0.09848432051436314,-1.2017581619116384 l 48.84673440167704 4.426561237976907" fill="#3aff91" stroke="none" /><path d="M 79.08570108090925 98.10471618934814 l -54.08464506625063 -4.901228226462248 a75.30626915992461,75.30626915992461 0 0,0 0.1281026851685831,-1.2899765575325337 l 53.99226525539982 5.831480314699212" fill="#41ffcf" stroke="none" /><path d="M 79.21141760316559 97.0276538004421 l -53.72579537043151 -7.681700494971931 a75.27218081743106,75.27218081743106 0 0,0 0.1944320093960401,-1.281064011253943 l 53.58560746759617 8.605363618617966" fill="#41ffcf" stroke="none" /><path d="M 79.26566170972629 96.67025291283419 l -51.810719638425 -8.320332695687522 a73.4745519811118,73.4745519811118 0 0,0 0.2112853057035691,-1.2470178344378897 l 51.6598224712012 9.21093631844124" fill="#3fffba" stroke="none" /><path d="M 79.32604984820605 96.31383870115002 l -46.06075396029036 -8.212623489833678 a67.78718029520664,67.78718029520664 0 0,0 0.2147054869298744,-1.1469652964706682 l 45.91256274945063 9.004266863766919" fill="#37ff75" stroke="none" /><path d="M 79.46518482838121 95.60439243477599 l -48.095371819332186 -10.295119700590538 a70.1848989029082,70.1848989029082 0 0,0 0.2630450233977814,-1.1791792619464347 l 47.91103240893237 11.121477132086932" fill="#3aff92" stroke="none" /><path d="M 79.62865764111835 94.90015583598534 l -44.628521023964396 -11.172484291072747 a67.00575283614756,67.00575283614756 0 0,0 0.28973181634827405,-1.116454877436066 l 44.42959287574582 11.939035594057676" fill="#36ff6b" stroke="none" /><path d="M 79.71946130924805 94.55025226153421 l -48.594620805397 -13.058253968203426 a71.31853702084773,71.31853702084773 0 0,0 0.3287894232128964,-1.1828304905266165 l 48.36264461161774 13.892795762148985" fill="#3cffa0" stroke="none" /><path d="M 79.81627453868168 94.20196356495316 l -43.57266837806335 -12.516813078556593 a66.33484354476374,66.33484354476374 0 0,0 0.3247062253532984,-1.0947479717800546 l 43.35075625559834 13.264990437083187" fill="#35ff62" stroke="none" /><path d="M 79.91906864156998 93.8553929516997 l -44.693455658888944 -13.67584589343355 a67.7389959202593,67.7389959202593 0 0,0 0.35077354006553385,-1.1120479795214848 l 44.451426635055206 14.44314403938145" fill="#37ff74" stroke="none" /><path d="M 80.14247586403 93.16781622104843 l -47.35725180285701 -16.29374565367485 a71.08188740199246,71.08188740199246 0 0,0 0.40803345412067626,-1.1535655211750193 l 47.06976526792652 17.10650880127648" fill="#3bff9d" stroke="none" /><path d="M 80.38941819471856 92.48833698450439 l -42.71049359761439 -16.35988357287588 a66.73655052438819,66.73655052438819 0 0,0 0.42014297323669186,-1.0692180397025985 l 42.422557074496005 17.09265061747424" fill="#35ff67" stroke="none" /><path d="M 80.52162464483688 92.15188598940014 l -42.836385228539854 -17.259387856823686 a67.18270638063711,67.18270638063711 0 0,0 0.4414169760390502,-1.068926220359021 l 42.5329465656146 17.99418864763602" fill="#36ff6d" stroke="none" /><path d="M 80.65960295795068 91.81776055985345 l -45.90115630705039 -19.419159320634233 a70.83994280739543,70.83994280739543 0 0,0 0.48477894741123295,-1.118936648888069 l 45.560086649796474 20.2063951141089" fill="#3bff9a" stroke="none" /><path d="M 80.803312248108 91.48605970444005 l -41.499714799776335 -18.405575933443913 a66.3981448288864,66.3981448288864 0 0,0 0.4723680473984497,-1.0408003776850505 l 41.176744435414534 19.117198319971035" fill="#35ff63" stroke="none" /><path d="M 80.95270993114464 91.15688171328213 l -38.294408616173776 -17.779011286568984 a63.22031470264559,63.22031470264559 0 0,0 0.46675198939957346,-0.9830987262733947 l 37.982698432932445 18.43555242848291" fill="#30ff39" stroke="none" /><path d="M 81.10775173730289 90.83032412892265 l -36.073195154788124 -17.508742347868218 a61.097773844435096,61.097773844435096 0 0,0 0.46736883804501755,-0.9421870582656785 l 35.76646630378969 18.127088994632857" fill="#3eff2d" stroke="none" /><path d="M 81.43458229118936 90.18545643968196 l -37.01755376082446 -19.569201166403573 a62.871863115064514,62.871863115064514 0 0,0 0.5140280801857847,-0.9524159652485572 l 36.675217581420206 20.2034981149846" fill="#30ff35" stroke="none" /><path d="M 81.6062741919709 89.86733742301443 l -36.831757666613115 -20.28973229502984 a63.050583936683815,63.050583936683815 0 0,0 0.5318537693539882,-0.9461085098423836 l 36.4770462559667 20.920724314807007" fill="#30ff37" stroke="none" /><line stroke="#e1ed5e" stroke-width="0.3" x1="26.266209847984243" x2="21.928928074336255" y1="57.711370442889674" y2="55.22380399835377" /><path d="M 25.398753493254645 57.213857153982495 a86.0,86.0 0 0,1 29.58750427330803,-30.492523968695096" fill="none" id="id35" stroke="none" /><text fill="#e1ed5e" style="font-size:6.75px; font-family:Arial;" text-anchor="middle"><textPath startOffset="21.46611528233685" xlink:href="#id35">November</textPath></text><path d="M 81.78341655067845 89.55222093294921 l -39.271780669356794 -22.523591712165814 a66.27234189390262,66.27234189390262 0 0,0 0.576065469663186,-0.9846826220199661 l 38.87825552522328 23.196253746539675" fill="#35ff61" stroke="none" /><path d="M 81.96595687620814 89.24020034530311 l -40.084132575689615 -23.915726101249582 a67.67654270932512,67.67654270932512 0 0,0 0.6054930096042997,-0.9952713041222575 l 39.6665237677991 24.602165178578915" fill="#37ff73" stroke="none" /><path d="M 82.15384107792192 88.93136811851018 l -39.004170164029915 -24.19135699024493 a66.89713545760861,66.89713545760861 0 0,0 0.6153657362193189,-0.9733608142977653 l 38.58197683156463 24.85916545225691" fill="#35ff69" stroke="none" /><path d="M 82.34701348167596 88.62581576622439 l -38.322427290474316 -24.691932316091037 a66.58837521711112,66.58837521711112 0 0,0 0.6291122709106726,-0.9581811495089608 l 37.891718384205724 25.347931529577664" fill="#35ff65" stroke="none" /><path d="M 82.7489923806493 88.02491185347247 l -41.313167980922 -28.67825689375355 a71.29135380046954,71.29135380046954 0 0,0 0.7084574216788008,-1.0020627808271148 l 40.81339793943932 29.38514617491245" fill="#3bffa0" stroke="none" /><path d="M 82.95767976084542 87.72973835380427 l -30.941131010306282 -22.277235012485143 a59.12648407601245,59.12648407601245 0 0,0 0.6017876303648171,-0.8208376515150761 l 30.553080767427833 22.80653510767172" fill="#54ff2b" stroke="none" /><path d="M 83.17141714833178 87.43820079747576 l -38.47349042573382 -28.71877362510045 a69.01018042112315,69.01018042112315 0 0,0 0.7187708013130845,-0.945818121161731 l 37.97344368419663 29.376776522143206" fill="#38ff84" stroke="none" /><path d="M 83.39014120810768 87.1503855733568 l -34.24311170434329 -26.490940572238 a64.29388676935784,64.29388676935784 0 0,0 0.684717400891436,-0.8695215649913877 l 33.78204022285789 27.076454531182435" fill="#32ff48" stroke="none" /><path d="M 83.84228863543731 86.58626213691792 l -35.64211599647226 -29.589215333478826 a67.32366670242072,67.32366670242072 0 0,0 0.7478998525145264,-0.885277525620275 l 35.127505530470614 30.19835180872822" fill="#36ff6f" stroke="none" /><path d="M 84.5562425177563 85.77008943001954 l -34.58058878138328 -31.862627108857154 a68.02174100078824,68.02174100078824 0 0,0 0.8008189138979483,-0.8542577818622917 l 34.027002545514875 32.4531543075975" fill="#37ff78" stroke="none" /><path d="M 84.80347519578584 85.50635884689758 l -35.36451758456272 -33.72880537009973 a69.87004620094925,69.87004620094925 0 0,0 0.8375613107377664,-0.863180554433014 l 34.77869201012184 34.332550120082864" fill="#3aff8f" stroke="none" /><path d="M 85.05521093208273 85.24692304244772 l -31.90272693186147 -31.493477990393643 a65.82882043529952,65.82882043529952 0 0,0 0.802999386320863,-0.7995510517636366 l 31.35589174537329 32.03796489280739" fill="#34ff5c" stroke="none" /><path d="M 85.31137513191541 84.99185889309783 l -29.549741492280884 -30.192526119462723 a63.24660762398639,63.24660762398639 0 0,0 0.7846095747961164,-0.7547937893085045 l 29.02564867387234 30.696702995533542" fill="#30ff3a" stroke="none" /><path d="M 85.57189188830299 84.74124197986013 l -34.86894703120492 -36.87640964756053 a71.75148328433042,71.75148328433042 0 0,0 0.9047250999864694,-0.8408433799340622 l 34.22901404742359 37.47115761356924" fill="#3cffa5" stroke="none" /><path d="M 86.37877921826538 84.01681056812374 l -27.151799404896355 -31.860019029035854 a62.8602558933203,62.8602558933203 0 0,0 0.8295831497931137,-0.6947520304175441 l 26.59935871814413 32.32267221684721" fill="#30ff35" stroke="none" /><path d="M 86.65592168130627 83.78471172551755 l -28.297097656546143 -34.38570914180564 a65.5320415989315,65.5320415989315 0 0,0 0.8771825799328297,-0.7092873090128686 l 27.701011678048815 34.86770254808265" fill="#34ff58" stroke="none" /><path d="M 86.93701828274178 83.55741782278169 l -25.817770654453074 -32.497237216337474 a62.5045504524606,62.5045504524606 0 0,0 0.8481791444450696,-0.6620172758340328 l 25.25455895484858 32.93683288139473" fill="#2fff30" stroke="none" /><path d="M 87.22198572758235 83.33499621200491 l -27.397233660072466 -35.731295410371175 a66.0259245760464,66.0259245760464 0 0,0 0.9078685558567545,-0.6837877741822762 l 26.778118950457323 36.197599774059306" fill="#34ff5e" stroke="none" /><path d="M 87.51073957382395 83.11751280151077 l -30.416572212796446 -41.11591667415369 a72.14378231155973,72.14378231155973 0 0,0 1.0047041444270877,-0.7299602889895217 l 29.704322752015575 41.633396197959875" fill="#3dffaa" stroke="none" /><path d="M 88.09926311788651 82.69761687909137 l -22.714864081782434 -33.02495339369004 a61.08257223419237,61.08257223419237 0 0,0 0.8714310426160709,-0.5883941299587337 l 22.143028344759824 33.411059435947436" fill="#3eff2d" stroke="none" /><path d="M 88.39885842347998 82.49532879139004 l -23.096676532999204 -34.84999524012753 a62.80883441459361,62.80883441459361 0 0,0 0.9063403761750726,-0.5895089921620011 l 22.49336913103984 35.242403156449065" fill="#30ff34" stroke="none" /><path d="M 88.70189139769569 82.29822771554957 l -22.872256327907987 -35.836040119638255 a63.513078940319645,63.513078940319645 0 0,0 0.9266281410087535,-0.5802544568906549 l 22.252009034526992 36.22443891785184" fill="#31ff3d" stroke="none" /><path d="M 89.00827224532344 82.1063720568725 l -22.313127659615514 -36.323935008197076 a63.62984776461234,63.62984776461234 0 0,0 0.9382006947009571,-0.565255420958111 l 21.68456489869691 36.70263703861381" fill="#31ff3f" stroke="none" /><line stroke="#e1ed5e" stroke-width="0.3" x1="56.762969772571076" x2="54.21961505331055" y1="26.818313649435495" y2="22.513508569990535" /><path d="M 56.25429882871897 25.957352633546506 a86.0,86.0 0 0,1 42.265352541879196,-11.944610805530505" fill="none" id="id36" stroke="none" /><text fill="#e1ed5e" style="font-size:6.75px; font-family:Arial;" text-anchor="middle"><textPath startOffset="22.20632615414155" xlink:href="#id36">December</textPath></text><path d="M 89.3179101791058 81.91981866633112 l -24.364923958423482 -41.23933151055206 a68.89918561872395,68.89918561872395 0 0,0 1.02628049485787,-0.5944879044440109 l 23.651446731100293 41.652623572386126" fill="#38ff83" stroke="none" /><path d="M 89.94658935756843 81.56283822128135 l -22.711870861884286 -41.651778910788366 a68.44154049438217,68.44154049438217 0 0,0 1.0391868671365396,-0.5550976351040597 l 21.99153894821944 42.036555272394175" fill="#38ff7d" stroke="none" /><path d="M 90.26544431104013 81.39251694778311 l -19.296194528384206 -36.88443768074574 a62.626972821742164,62.626972821742164 0 0,0 0.9595034142599557,-0.49149491609874746 l 18.658430626535488 37.21112512215699" fill="#30ff31" stroke="none" /><path d="M 90.58718382345135 81.22770947309562 l -22.441001924830516 -44.75483212954916 a71.0658922454636,71.0658922454636 0 0,0 1.0982344747235189,-0.5388988871668715 l 21.66729618309657 45.13448617685086" fill="#3bff9d" stroke="none" /><path d="M 90.91171255644093 81.06846463323043 l -20.380979099490386 -42.45499815312767 a68.09364264140052,68.09364264140052 0 0,0 1.0610344544878254,-0.4981699033007947 l 19.647166433702953 42.79953303906847" fill="#37ff78" stroke="none" /><path d="M 91.23893434514133 80.91482961587045 l -20.061903030093625 -43.70299831583652 a69.08775327443453,69.08775327443453 0 0,0 1.085065544041151,-0.48683728070982946 l 19.306655367585698 44.041855927062876" fill="#38ff85" stroke="none" /><path d="M 91.56875222667455 80.76684994638697 l -17.056350228876532 -38.90851652549299 a63.4828405517411,63.4828405517411 0 0,0 1.004589476997697,-0.4301127866649954 l 16.384076994088527 39.19634884012078" fill="#31ff3d" stroke="none" /><path d="M 91.90106846888425 80.62456947434976 l -19.04862553577652 -45.570865645621645 a70.39184072793336,70.39184072793336 0 0,0 1.1219659305240424,-0.4576780739475626 l 18.261375735664096 45.89200460575279" fill="#3aff95" stroke="none" /><path d="M 92.57280143429618 80.3572730644239 l -15.943074562539476 -42.164681255672924 a66.07817622640904,66.07817622640904 0 0,0 1.0673754884148938,-0.3931234003355001 l 15.214916748352012 42.43286792381475" fill="#34ff5f" stroke="none" /><path d="M 92.91201910852362 80.23233633223022 l -16.34852491092157 -45.59438673034272 a69.4367873426704,69.4367873426704 0 0,0 1.1285726238135285,-0.39373682834418533 l 15.561270283044754 45.869044411859115" fill="#39ff89" stroke="none" /><path d="M 93.25333710446033 80.11325718540243 l -14.92216239464795 -43.9851835455143 a67.44746819865242,67.44746819865242 0 0,0 1.1026606870883904,-0.3635298920737727 l 14.16281888531715 44.23552716184731" fill="#36ff70" stroke="none" /><path d="M 93.59665428221793 80.00007090966166 l -14.50988161713064 -45.319527672220055 a68.58567277002885,68.58567277002885 0 0,0 1.1274655934614015,-0.3503090481097408 l 13.72763065095851 45.56257685521232" fill="#38ff7f" stroke="none" /><path d="M 93.94186890950719 79.89281104454417 l -13.479779914463819 -44.7399499564203 a67.72651911543781,67.72651911543781 0 0,0 1.1191316501237438,-0.326705217281597 l 12.707658046616654 44.965353502620594" fill="#37ff74" stroke="none" /><path d="M 94.63758080256005 79.69619591428918 l -11.73436720952084 -44.430001482473315 a66.95345912486304,66.95345912486304 0 0,0 1.1168191239634164,-0.28470206171336937 l 10.967839196872424 44.62540654035555" fill="#36ff6a" stroke="none" /><path d="M 95.33964822691252 79.52364482259891 l -12.296583402239792 -54.02794069469711 a76.40960511570125,76.40960511570125 0 0,0 1.2849813329126782,-0.28084714908366826 l 11.364759345173592 54.23160134187664" fill="#43ffdb" stroke="none" /><path d="M 95.692805502759 79.44645832069477 l -9.403643165671625 -44.873332715007585 a66.84805877830655,66.84805877830655 0 0,0 1.1282474996641476,-0.22631583443122316 l 8.62982925654034 45.02855250551602" fill="#35ff69" stroke="none" /><path d="M 96.04723909329186 79.375362276772 l -8.837670559542456 -46.11302274783893 a67.95226605672738,67.95226605672738 0 0,0 1.1506741591374532,-0.21027834765824457 l 8.04260127930211 46.25831657684791" fill="#37ff77" stroke="none" /><path d="M 96.40284397218896 79.31037775812273 l -7.971080968319032 -45.846955989366826 a67.5347343958729,67.5347343958729 0 0,0 1.1470317776274044,-0.18927007145603963 l 7.180719984552742 45.977372323762495" fill="#36ff71" stroke="none" /><path d="M 96.75951476605007 79.25152402106235 l -8.668928925663058 -55.506212987118786 a77.17908871537159,77.17908871537159 0 0,0 1.3143636279460051,-0.19370303251095236 l 7.712196317288403 55.6472105037907" fill="#44ffe4" stroke="none" /><path d="M 97.11714578562143 79.19881850522333 l -7.2453583163504796 -52.278749505057284 a73.77843183483985,73.77843183483985 0 0,0 1.2594514841227178,-0.16351294913875644 l 6.344392103719904 52.395720777360175" fill="#3fffbd" stroke="none" /><path d="M 97.47563105711357 79.15227682838746 l -5.247067181439171 -43.33336629328775 a64.64988371479107,64.64988371479107 0 0,0 1.1059233735513236,-0.12426337687543923 l 4.500377104378129 43.41726562363379" fill="#32ff4c" stroke="none" /><path d="M 98.19473922651362 79.07773832637324 l -4.028051706753192 -46.683533526756136 a67.85698990648078,67.85698990648078 0 0,0 1.164586899173178,-0.09039435720542702 l 3.223874618217679 46.74595314615002" fill="#37ff76" stroke="none" /><path d="M 98.55514903715128 79.0497635885617 l -3.5289509071084613 -51.16953768194505 a72.291081886511,72.291081886511 0 0,0 1.2421602797664604,-0.07493050026809026 l 2.6476285785023776 51.222701451593444" fill="#3dffac" stroke="none" /><path d="M 98.91598698831166 79.02799685794201 l -2.737347758333938 -52.95846559929477 a74.02916321593,74.02916321593 0 0,0 1.2731576650466736,-0.054824847215206536 l 1.8253492608979403 52.997738173034165" fill="#3fffc0" stroke="none" /><path d="M 99.27714615592234 79.0124445844662 l -1.6225176246496895 -47.10866358256107 a68.1365966948953,68.1365966948953 0 0,0 1.1725119625716096,-0.03028252474598423 l 0.8113790268832011 47.12961289944942" fill="#37ff79" stroke="none" /><path d="M 99.63851952072746 79.00311137660856 l -0.9295321401037472 -53.99263289928823 a75.00063367588187,75.00063367588187 0 0,0 1.2910126193762697,-0.011112153202201496 l 1.3226340636619501e-14 54.00063367588187" fill="#41ffcb" stroke="none" /></svg>